<svg width="95" height="37" viewBox="0 0 95 37" fill="none" xmlns="http://www.w3.org/2000/svg">
<path d="M33.2265 19.7798C34.4325 19.6732 35 19.0866 35 18.5356C35 17.9845 34.4591 17.3979 33.2265 17.2913C33.2421 16.9498 33.1635 16.6107 32.9992 16.3112C32.8349 16.0117 32.5914 15.7634 32.2954 15.5937C32.5076 15.3245 32.6401 15.001 32.6777 14.66C32.7153 14.319 32.6566 13.9742 32.5082 13.6651C33.5901 13.1051 33.8561 12.3497 33.6521 11.8875C33.4482 11.4253 32.7211 11.0432 31.5594 11.4076C31.0983 10.5188 30.5042 10.1722 30.0253 10.1988C30.1259 9.8674 30.13 9.51412 30.0374 9.18041C29.9447 8.84669 29.759 8.54636 29.5022 8.31463C30.2825 7.42585 30.2382 6.53707 29.8746 6.19045C29.511 5.84383 28.6863 5.77273 27.7553 6.56374C27.5309 6.30193 27.2353 6.11125 26.9046 6.01498C26.574 5.91871 26.2225 5.921 25.8931 6.02158C25.8931 5.55053 25.565 4.96394 24.6871 4.50178C25.0595 3.33748 24.6871 2.61757 24.2083 2.40427C23.7294 2.19096 22.9491 2.46648 22.4348 3.55079C22.1242 3.38056 21.7699 3.30737 21.4175 3.34063C21.0651 3.37389 20.7307 3.51208 20.4573 3.73743C20.2888 3.28415 19.739 2.84865 18.7459 2.77755C18.6395 1.55993 18.0542 1 17.5044 1C16.9546 1 16.3694 1.54215 16.263 2.77755C15.2787 2.86643 14.7466 3.26638 14.5693 3.66633C14.3007 3.45365 13.9779 3.32088 13.6377 3.28317C13.2975 3.24545 12.9535 3.30431 12.645 3.45302C12.0864 2.3776 11.3327 2.08431 10.8272 2.3065C10.3218 2.52869 9.9848 3.23972 10.3484 4.40401C9.46162 4.86618 9.11578 5.46166 9.14239 5.94159C8.81171 5.84084 8.45924 5.83666 8.12628 5.92953C7.79332 6.02241 7.49368 6.20849 7.26248 6.46597C6.37573 5.68385 5.48898 5.72829 5.14315 6.09269C4.79731 6.45708 4.72637 7.28365 5.51558 8.21686C5.25437 8.44175 5.06413 8.73798 4.96808 9.06942C4.87202 9.40085 4.87431 9.75314 4.97466 10.0833C4.49582 10.0833 3.91943 10.4121 3.45832 11.292C2.29668 10.9187 1.56955 11.292 1.36559 11.772C1.16164 12.2519 1.42767 13.034 2.5095 13.5495C2.33541 13.8674 2.2625 14.2311 2.30054 14.5917C2.33858 14.9523 2.48576 15.2927 2.72232 15.567C2.27008 15.727 1.83557 16.2692 1.7735 17.2646C0.549785 17.389 0 17.9756 0 18.5267C0 19.0777 0.540917 19.6732 1.7735 19.7798C1.7629 20.1201 1.84579 20.4567 2.01312 20.753C2.18045 21.0492 2.42578 21.2937 2.72232 21.4596C2.51201 21.7297 2.38073 22.0531 2.34315 22.3937C2.30557 22.7343 2.36316 23.0786 2.5095 23.3883C1.42767 23.9482 1.14391 24.7037 1.36559 25.1658C1.58728 25.628 2.29668 26.0102 3.45832 25.6458C3.91943 26.5345 4.51355 26.8812 4.9924 26.8545C4.89188 27.1859 4.8877 27.5392 4.98037 27.8729C5.07303 28.2066 5.25869 28.507 5.51558 28.7387C4.73524 29.6275 4.77958 30.5163 5.14315 30.8629C5.50671 31.2095 6.33139 31.2806 7.26248 30.4896C7.49017 30.7469 7.78588 30.9344 8.11542 31.0303C8.44495 31.1263 8.79485 31.1268 9.12465 31.0317C9.12465 31.5117 9.45275 32.0894 10.3306 32.5515C9.9582 33.7158 10.3306 34.4446 10.8095 34.6491C11.2883 34.8535 12.0687 34.5868 12.583 33.5025C12.8926 33.6572 13.2405 33.7177 13.584 33.6766C13.9275 33.6356 14.2515 33.4947 14.5161 33.2715C14.6757 33.7247 15.2166 34.1602 16.2098 34.2224C16.3339 35.449 16.9192 36 17.469 36C18.0187 36 18.604 35.4578 18.7104 34.2224C19.0527 34.2553 19.3974 34.1921 19.7059 34.0399C20.0144 33.8876 20.2746 33.6523 20.4573 33.3603C20.7264 33.5721 21.0491 33.7042 21.3891 33.7419C21.7291 33.7796 22.0728 33.7213 22.3816 33.5736C22.9491 34.658 23.7028 34.9246 24.1994 34.7202C24.696 34.5157 25.0418 33.7869 24.6782 32.6227C25.565 32.1605 25.9108 31.565 25.8842 31.0851C26.2149 31.1858 26.5674 31.19 26.9003 31.0971C27.2333 31.0043 27.5329 30.8182 27.7641 30.5607C28.6509 31.3428 29.5376 31.2984 29.8835 30.934C30.2293 30.5696 30.3002 29.743 29.511 28.8098C29.7678 28.5816 29.9548 28.2852 30.0505 27.9549C30.1462 27.6246 30.1467 27.2739 30.0519 26.9434C30.5308 26.9434 31.1072 26.6145 31.5683 25.7346C32.7299 26.1079 33.4571 25.7346 33.661 25.2547C33.865 24.7748 33.5989 23.9926 32.5171 23.4771C32.6714 23.1668 32.7317 22.8181 32.6908 22.4738C32.6498 22.1296 32.5093 21.8048 32.2865 21.5396C32.7388 21.3796 33.1733 20.8375 33.2354 19.8421M32.1269 20.7308C32.2118 20.4415 32.2624 20.1432 32.2777 19.8421C32.5941 19.8254 32.9003 19.7242 33.1644 19.5488C33.1485 19.8183 33.0442 20.075 32.8679 20.2791C32.6915 20.4831 32.4529 20.6232 32.189 20.6775L32.1269 20.7308ZM32.526 22.5617C33.3418 22.9705 33.5546 23.4949 33.4127 23.8415C33.3761 23.9188 33.3242 23.9878 33.2602 24.0443C33.1962 24.1008 33.1213 24.1437 33.0403 24.1704C32.839 24.5754 32.4912 24.8883 32.0677 25.0451C31.6443 25.202 31.1771 25.1912 30.7613 25.0147C30.686 25.2359 30.555 25.4339 30.381 25.5896C30.207 25.7453 29.996 25.8534 29.7682 25.9035C29.6027 25.7218 29.491 25.4975 29.4456 25.2558C29.4002 25.014 29.4228 24.7644 29.511 24.5348C28.4558 24.0282 28.1277 23.4505 28.2696 23.1127C28.4115 22.775 29.0499 22.5973 30.1583 22.9883C30.2529 22.7537 30.4126 22.5512 30.6185 22.4047C30.8244 22.2582 31.0678 22.1739 31.32 22.1618C31.4447 22.3537 31.519 22.5741 31.5361 22.8025C31.5531 23.0309 31.5124 23.2599 31.4175 23.4683V23.5394L32.526 22.5617ZM29.6174 27.45C30.2116 28.1432 30.2204 28.712 29.9544 28.9698C29.8923 29.0295 29.8184 29.0754 29.7374 29.1044C29.6564 29.1335 29.5702 29.1452 29.4844 29.1386C29.0899 29.0948 28.7214 28.9195 28.4381 28.6409C28.2817 28.8076 28.0862 28.9324 27.8693 29.0038C27.6524 29.0753 27.4211 29.0911 27.1966 29.0498C26.8522 29.0122 26.5367 28.8397 26.3187 28.5698C25.5384 27.6811 25.432 27.0411 25.7157 26.7923C25.9995 26.5434 26.6025 26.6234 27.4892 27.3966C27.6664 27.2271 27.8873 27.1105 28.1271 27.0603C28.3668 27.01 28.6159 27.028 28.846 27.1122C28.8892 27.3352 28.8752 27.5655 28.8054 27.7815C28.7356 27.9976 28.6123 28.1924 28.4469 28.3476L29.6174 27.45ZM23.9156 31.8139C24.1994 32.7026 23.9866 33.2092 23.6407 33.3514C23.5626 33.3862 23.478 33.4042 23.3925 33.4042C23.3069 33.4042 23.2223 33.3862 23.1442 33.3514C22.7904 33.1533 22.515 32.8396 22.3638 32.4627C22.1557 32.5569 21.9274 32.5973 21.6996 32.5803C21.4719 32.5632 21.2521 32.4891 21.0603 32.3649C21.0699 32.1277 21.1434 31.8975 21.273 31.6988C21.4026 31.5001 21.5834 31.3402 21.7963 31.2362C21.4061 30.1252 21.5835 29.4586 21.9204 29.352C22.2574 29.2453 22.8072 29.5475 23.3215 30.6051C23.5504 30.5157 23.7997 30.4924 24.0411 30.538C24.2825 30.5836 24.5064 30.6961 24.6871 30.8629C24.6871 31.1828 24.4211 31.565 23.8536 31.8583L23.9156 31.8139ZM18.3646 33.2626C18.3025 34.1513 17.8946 34.578 17.531 34.578C17.445 34.5758 17.3604 34.5557 17.2825 34.5189C17.2047 34.4822 17.1353 34.4297 17.0788 34.3647C16.8266 34.0495 16.6889 33.6577 16.6886 33.2537C16.4592 33.2618 16.2315 33.2114 16.0267 33.1073C15.822 33.0031 15.647 32.8486 15.5181 32.6582C15.6216 32.4333 15.7864 32.2422 15.9935 32.107C16.2005 31.9717 16.4415 31.8979 16.6886 31.8939C16.7507 30.7207 17.1586 30.1963 17.5222 30.1963C17.8857 30.1963 18.2936 30.7296 18.3557 31.8939C18.6007 31.902 18.8386 31.9787 19.0423 32.1154C19.2461 32.252 19.4076 32.4431 19.5085 32.6671C19.3808 32.8539 19.2083 33.0055 19.0068 33.108C18.8054 33.2105 18.5815 33.2606 18.3557 33.2537L18.3646 33.2626ZM6.0565 18.5444C6.0565 16.2772 6.72717 14.0609 7.98371 12.1756C9.24026 10.2904 11.0263 8.82085 13.116 7.95282C15.2057 7.08478 17.5052 6.85721 19.724 7.29888C21.9427 7.74055 23.9809 8.83162 25.5811 10.4342C27.1812 12.0367 28.2714 14.0788 28.7138 16.3022C29.1561 18.5257 28.9309 20.8307 28.0664 22.9258C27.202 25.021 25.7372 26.8122 23.8572 28.0731C21.9772 29.334 19.7665 30.0079 17.5044 30.0096C14.4705 30.0073 11.5614 28.7989 9.41524 26.6495C7.2691 24.5001 6.06119 21.5853 6.0565 18.5444ZM13.186 31.2362C13.4091 31.3362 13.6002 31.4963 13.738 31.6988C13.8758 31.9012 13.9548 32.1379 13.9663 32.3827C13.7748 32.5077 13.5549 32.5822 13.3271 32.5993C13.0992 32.6164 12.8707 32.5755 12.6628 32.4804C12.2549 33.2981 11.7317 33.5114 11.3859 33.3692C11.3085 33.333 11.2394 33.2811 11.183 33.2169C11.1265 33.1526 11.0839 33.0774 11.0578 32.9959C10.9473 32.6119 10.9691 32.2017 11.1198 31.8316C10.8991 31.7561 10.7016 31.6248 10.5463 31.4504C10.3909 31.2761 10.2831 31.0645 10.2331 30.8362C10.4126 30.6705 10.6344 30.5579 10.8739 30.5108C11.1134 30.4638 11.3612 30.4841 11.5898 30.5696C12.1041 29.5119 12.6716 29.1831 13.0086 29.3164C13.3456 29.4497 13.5229 30.0985 13.1328 31.2006L13.186 31.2362ZM11.2706 30.3474C10.7446 30.1334 10.1561 30.1334 9.6301 30.3474V30.2496C9.59272 29.7164 9.36993 29.2131 9.00051 28.8276C9.37185 28.4433 9.59497 27.9393 9.6301 27.4055C9.63264 27.2528 9.6024 27.1012 9.54142 26.9611C10.4856 27.8597 11.5737 28.5928 12.7603 29.1298C12.2992 29.1298 11.7228 29.4764 11.2706 30.3385V30.3474ZM7.72359 29.6097C7.03192 30.2052 6.4644 30.2141 6.20725 29.9474C6.1462 29.881 6.10031 29.8021 6.07275 29.7162C6.04518 29.6303 6.03661 29.5393 6.04763 29.4497C6.09139 29.0543 6.26625 28.685 6.54421 28.401C6.37652 28.2453 6.25111 28.0493 6.17975 27.8317C6.1084 27.614 6.09344 27.3817 6.13631 27.1567C6.3664 27.0725 6.61542 27.0545 6.85519 27.1047C7.09496 27.155 7.3159 27.2715 7.49303 27.4411C8.37978 26.659 9.02711 26.5523 9.26653 26.8367C9.50595 27.1211 9.43501 27.7255 8.66354 28.6143C8.82645 28.792 8.93744 29.0112 8.98436 29.2479C9.03128 29.4846 9.01232 29.7297 8.92957 29.9563C8.70801 30.0079 8.47667 29.9989 8.25982 29.9301C8.04296 29.8613 7.84856 29.7353 7.69698 29.5653L7.72359 29.6097ZM2.67798 24.7125C2.6438 24.6341 2.62616 24.5493 2.62616 24.4637C2.62616 24.378 2.6438 24.2933 2.67798 24.2148C2.87572 23.8602 3.18867 23.5842 3.56473 23.4327C3.4707 23.2241 3.43036 22.9952 3.4474 22.767C3.46445 22.5388 3.53832 22.3184 3.66227 22.1262C3.90827 22.1351 4.14681 22.2132 4.35065 22.3515C4.55449 22.4898 4.71542 22.6827 4.81505 22.9083C5.92349 22.5173 6.58855 22.695 6.69496 23.0328C6.80137 23.3705 6.50874 23.9215 5.46238 24.4281C5.55058 24.6577 5.57324 24.9074 5.52782 25.1491C5.4824 25.3909 5.37069 25.6152 5.20522 25.7969C4.97742 25.7468 4.76635 25.6386 4.59238 25.483C4.41842 25.3273 4.28743 25.1293 4.21206 24.9081C3.32531 25.2191 2.80213 25.0058 2.66025 24.6592L2.67798 24.7125ZM1.46314 18.5711C1.46533 18.4849 1.48538 18.4001 1.52202 18.322C1.55865 18.244 1.61108 18.1745 1.67596 18.1178C1.99036 17.865 2.38131 17.7271 2.78439 17.7268C2.7763 17.4968 2.82656 17.2685 2.93047 17.0634C3.03438 16.8582 3.18854 16.6828 3.37851 16.5536C3.60295 16.6573 3.79359 16.8225 3.9285 17.03C4.06342 17.2376 4.13712 17.4791 4.14112 17.7268C5.31163 17.789 5.83481 18.1978 5.83481 18.5622C5.83481 18.9266 5.31163 19.3354 4.14112 19.3977C4.1377 19.6432 4.06622 19.883 3.93468 20.0901C3.80315 20.2973 3.61673 20.4637 3.39625 20.5708C3.20627 20.4417 3.05211 20.2663 2.94821 20.0611C2.8443 19.8559 2.79404 19.6276 2.80213 19.3977C1.91538 19.3354 1.48974 18.9355 1.48974 18.5622L1.46314 18.5711ZM3.60907 13.6562C2.79326 13.2473 2.58044 12.723 2.72232 12.3763C2.75849 12.2988 2.81023 12.2296 2.87432 12.173C2.9384 12.1164 3.01344 12.0737 3.09476 12.0475C3.47793 11.9367 3.88717 11.9586 4.2564 12.1097C4.33177 11.8885 4.46275 11.6905 4.63672 11.5348C4.81069 11.3791 5.02176 11.271 5.24956 11.2209C5.41112 11.4013 5.51981 11.6229 5.56362 11.8613C5.60744 12.0997 5.58467 12.3456 5.49785 12.5719C6.55308 13.0785 6.88118 13.6562 6.7393 13.9939C6.59742 14.3316 5.95896 14.5094 4.85052 14.1183C4.75413 14.3459 4.59569 14.5417 4.39336 14.6832C4.19104 14.8247 3.95302 14.9061 3.70661 14.9182C3.59597 14.7356 3.52952 14.5296 3.51258 14.3166C3.49565 14.1036 3.52869 13.8896 3.60907 13.6917V13.6562ZM6.52648 8.74124C5.93235 8.04799 5.93235 7.47918 6.18951 7.22143C6.25397 7.15987 6.33088 7.11293 6.41503 7.0838C6.49918 7.05466 6.5886 7.04401 6.67722 7.05256C7.07175 7.09643 7.4402 7.27168 7.72359 7.55028C7.87993 7.38356 8.07548 7.25879 8.29235 7.18737C8.50923 7.11595 8.7405 7.10016 8.96504 7.14144C9.04907 7.37206 9.06702 7.62165 9.01688 7.86197C8.96673 8.10228 8.85048 8.32374 8.68128 8.50127C9.46161 9.39005 9.56803 10.0389 9.28427 10.2788C9.00051 10.5188 8.39752 10.4566 7.51077 9.67445C7.33364 9.84404 7.11269 9.96056 6.87292 10.0108C6.63315 10.0611 6.38413 10.0431 6.15404 9.95886C6.10423 9.73812 6.11414 9.50805 6.18273 9.29243C6.25132 9.07681 6.37611 8.88346 6.54421 8.73235L6.52648 8.74124ZM11.111 5.25724C10.8272 4.36846 11.04 3.86186 11.3859 3.71965C11.4642 3.6854 11.5487 3.66772 11.6342 3.66772C11.7196 3.66772 11.8041 3.6854 11.8824 3.71965C12.2362 3.91784 12.5116 4.2315 12.6628 4.60843C12.8709 4.51419 13.0992 4.47376 13.327 4.49084C13.5547 4.50792 13.7745 4.58196 13.9663 4.7062C13.9558 4.95121 13.8772 5.18841 13.7393 5.391C13.6014 5.5936 13.4097 5.75352 13.186 5.85272C13.5761 6.96369 13.3988 7.63027 13.0618 7.73692C12.7249 7.84358 12.1751 7.54139 11.6519 6.49264C11.423 6.58208 11.1737 6.60534 10.9323 6.55978C10.6908 6.51421 10.467 6.40165 10.2863 6.23489C10.2863 5.90604 10.5523 5.53276 11.1198 5.23057L11.111 5.25724ZM11.3238 6.7326C11.5359 7.21982 11.9127 7.61639 12.3879 7.85246C12.5308 7.91352 12.6848 7.9438 12.8401 7.94134C11.6306 8.48498 10.5237 9.23363 9.56802 10.1544C9.66855 9.82297 9.67272 9.46969 9.58006 9.13597C9.4874 8.80225 9.30173 8.50192 9.04484 8.27019C9.2447 8.06784 9.40248 7.82772 9.50903 7.56378C9.61559 7.29984 9.6688 7.01732 9.66557 6.7326L9.77198 6.78593C10.2735 6.96713 10.8223 6.96713 11.3238 6.78593V6.7326ZM5.87028 10.6521C6.40231 10.6146 6.90439 10.3913 7.28908 10.0211C7.67203 10.3939 8.1751 10.6177 8.70788 10.6521C8.86688 10.6539 9.02432 10.6205 9.16899 10.5543C8.26285 11.51 7.52522 12.6129 6.98758 13.8161C6.98758 13.3362 6.65949 12.7496 5.78161 12.2963C5.996 11.7693 5.996 11.1791 5.78161 10.6521H5.87028ZM3.75095 15.7092C4.22659 15.4752 4.606 15.0824 4.82392 14.5983C5.32472 14.7833 5.87493 14.7833 6.37573 14.5983C6.50314 14.5381 6.61761 14.4536 6.71269 14.3494C6.24145 15.5793 5.98353 16.8808 5.95009 18.1978C5.78161 17.7534 5.24069 17.309 4.2564 17.2646C4.24457 16.6984 4.01224 16.1593 3.60907 15.7626L3.75095 15.7092ZM3.75095 21.2197C4.09963 20.8166 4.29719 20.3043 4.3096 19.771C4.84246 19.7623 5.35485 19.5638 5.755 19.211C5.86303 19.1055 5.94763 18.9783 6.00329 18.8377C6.03124 20.1442 6.2801 21.4364 6.7393 22.6595C6.47069 22.4504 6.14963 22.3198 5.81161 22.2822C5.47359 22.2445 5.13176 22.3013 4.82392 22.4462C4.58657 21.9177 4.14962 21.5053 3.60907 21.2996L3.75095 21.2197ZM5.78161 24.7748C6.27145 24.5646 6.67066 24.1865 6.90778 23.7082C6.9663 23.5705 6.99646 23.4224 6.99645 23.2727C7.52899 24.4718 8.26059 25.5718 9.16012 26.5256C8.83447 26.4306 8.48846 26.4312 8.16312 26.5273C7.83778 26.6234 7.54676 26.811 7.32455 27.0678C7.12266 26.8675 6.88309 26.7093 6.61975 26.6025C6.35641 26.4958 6.07454 26.4424 5.79047 26.4457C5.79047 26.4457 5.79047 26.3746 5.84368 26.339C6.00739 25.8302 5.98857 25.28 5.79047 24.7836L5.78161 24.7748ZM16.6266 3.80853C16.6975 2.91976 17.0965 2.49314 17.469 2.49314C17.555 2.49534 17.6396 2.51544 17.7175 2.55216C17.7953 2.58888 17.8647 2.64142 17.9212 2.70645C18.1734 3.02157 18.3111 3.41342 18.3114 3.81742C18.5554 3.79339 18.8013 3.83607 19.023 3.94092C19.2447 4.04577 19.4339 4.20888 19.5706 4.4129C19.4671 4.63784 19.3023 4.82892 19.0952 4.96415C18.8881 5.09937 18.6472 5.17324 18.4 5.17725C18.338 6.35043 17.9301 6.8837 17.5665 6.8837C17.2029 6.8837 16.795 6.35932 16.733 5.18613C16.4854 5.17889 16.245 5.1016 16.0395 4.9632C15.8339 4.82481 15.6716 4.63094 15.5713 4.40401C15.6871 4.22763 15.8433 4.08155 16.0269 3.97797C16.2104 3.87438 16.416 3.81629 16.6266 3.80853ZM21.814 5.85272C21.5892 5.75395 21.3963 5.59437 21.2569 5.39186C21.1175 5.18935 21.0371 4.95192 21.0248 4.7062C21.2132 4.57546 21.4315 4.49467 21.6595 4.47136C21.8874 4.44805 22.1175 4.48297 22.3284 4.57288C22.7363 3.75521 23.2594 3.5419 23.6053 3.6841C23.6823 3.72079 23.7512 3.7728 23.8076 3.83697C23.864 3.90114 23.9068 3.97613 23.9334 4.05739C24.0439 4.44144 24.022 4.85162 23.8713 5.22169C24.092 5.29723 24.2895 5.42852 24.4449 5.60288C24.6002 5.77724 24.7081 5.98879 24.758 6.21711C24.5768 6.38297 24.353 6.49493 24.1118 6.54046C23.8706 6.58598 23.6215 6.56327 23.3925 6.47486C22.8781 7.5325 22.3106 7.86135 21.9736 7.71915C21.6367 7.57694 21.4593 6.93702 21.8495 5.82605L21.814 5.85272ZM23.7294 6.74149C24.2554 6.95543 24.8439 6.95543 25.3699 6.74149V6.83926C25.408 7.37233 25.6307 7.87531 25.9995 8.2613C25.6281 8.64557 25.405 9.14953 25.3699 9.68334C25.3689 9.83978 25.4022 9.99452 25.4674 10.1366C24.5183 9.236 23.424 8.50278 22.2308 7.968C22.7008 7.968 23.286 7.63916 23.7383 6.75927L23.7294 6.74149ZM27.2764 7.47918C27.9681 6.8837 28.5356 6.87481 28.7928 7.14144C28.8559 7.2067 28.9037 7.28521 28.9329 7.37129C28.962 7.45737 28.9717 7.54887 28.9612 7.63916C28.9175 8.03459 28.7426 8.40388 28.4647 8.68791C28.6323 8.84363 28.7578 9.03953 28.8291 9.2572C28.9005 9.47486 28.9154 9.70715 28.8726 9.9322C28.6535 10.0187 28.4152 10.0446 28.1828 10.007C27.9503 9.9695 27.7322 9.86998 27.5513 9.71889C26.6646 10.501 26.0261 10.6077 25.7778 10.3233C25.5295 10.0389 25.6093 9.43449 26.3808 8.54571C26.2116 8.36818 26.0953 8.14672 26.0452 7.9064C25.995 7.66609 26.013 7.4165 26.097 7.18588C26.3191 7.1315 26.5517 7.13831 26.7703 7.20559C26.9888 7.27286 27.1851 7.3981 27.3385 7.56805L27.2764 7.47918ZM32.322 12.3852C32.3562 12.4637 32.3738 12.5484 32.3738 12.6341C32.3738 12.7197 32.3562 12.8044 32.322 12.8829C32.1243 13.2375 31.8113 13.5136 31.4353 13.6651C31.5293 13.8736 31.5696 14.1025 31.5526 14.3308C31.5356 14.559 31.4617 14.7793 31.3377 14.9716C31.0908 14.9619 30.8515 14.8825 30.6476 14.7426C30.4437 14.6026 30.2833 14.4078 30.1849 14.1805C29.0765 14.5716 28.4114 14.3939 28.305 14.0561C28.1986 13.7184 28.4913 13.1673 29.5376 12.6607C29.4484 12.4313 29.4252 12.1814 29.4706 11.9395C29.5161 11.6975 29.6284 11.4732 29.7948 11.292C30.0222 11.3429 30.2329 11.4513 30.4067 11.6069C30.5806 11.7625 30.7118 11.96 30.7879 12.1808C31.6747 11.8786 32.1979 12.0919 32.3309 12.4297L32.322 12.3852ZM33.5369 18.5267C33.5347 18.6129 33.5146 18.6977 33.478 18.7757C33.4413 18.8538 33.3889 18.9233 33.324 18.9799C33.0096 19.2328 32.6187 19.3707 32.2156 19.371C32.2255 19.6079 32.1734 19.8432 32.0645 20.0537C31.9556 20.2642 31.7937 20.4424 31.5949 20.5708C31.3711 20.4663 31.181 20.3009 31.0462 20.0935C30.9114 19.8862 30.8373 19.6451 30.8323 19.3977C29.6618 19.3354 29.1297 18.9266 29.1297 18.5622C29.1297 18.1978 29.6529 17.789 30.8234 17.7268C30.8299 17.4796 30.9056 17.2393 31.0421 17.0334C31.1785 16.8275 31.3701 16.6643 31.5949 16.5625C31.7849 16.6917 31.939 16.8671 32.0429 17.0723C32.1468 17.2774 32.1971 17.5057 32.189 17.7357C33.0758 17.789 33.5014 18.1889 33.5014 18.5622L33.5369 18.5267ZM31.3023 15.8603C30.9555 16.2611 30.7581 16.7699 30.7436 17.3002C30.2107 17.3088 29.6984 17.5073 29.2982 17.8601C29.1942 17.9671 29.1127 18.0941 29.0588 18.2334C29.0302 16.9327 28.7813 15.6465 28.3228 14.4294C28.5918 14.638 28.9134 14.7676 29.2516 14.8037C29.5898 14.8398 29.9313 14.781 30.2382 14.6338C30.458 15.1493 30.8677 15.56 31.3821 15.7803L31.3023 15.8603ZM29.2627 12.3052C28.7799 12.5195 28.3876 12.897 28.1543 13.3718C28.0958 13.5095 28.0656 13.6576 28.0656 13.8073C27.5286 12.6064 26.7909 11.5062 25.8842 10.5543C26.2145 10.6511 26.5654 10.6524 26.8964 10.5581C27.2275 10.4637 27.5252 10.2776 27.7553 10.0211C27.9571 10.2214 28.1967 10.3795 28.4601 10.4863C28.7234 10.5931 29.0053 10.6465 29.2893 10.6432L29.2361 10.7499C29.0561 11.2526 29.0561 11.8025 29.2361 12.3052H29.2627ZM23.7028 30.3474C23.4903 29.8626 23.1133 29.469 22.6387 29.2364C22.5068 29.1801 22.3653 29.1499 22.2219 29.1475C23.4089 28.6112 24.4971 27.878 25.4408 26.9789C25.3545 27.3058 25.3593 27.6502 25.4546 27.9746C25.55 28.299 25.7323 28.591 25.9818 28.8187C25.7819 29.021 25.6241 29.2612 25.5176 29.5251C25.411 29.789 25.3578 30.0716 25.361 30.3563L25.2546 30.3029C24.7557 30.1246 24.2106 30.1246 23.7117 30.3029L23.7028 30.3474ZM29.1563 26.4368C28.6247 26.4757 28.1231 26.6988 27.7375 27.0678C27.3546 26.695 26.8515 26.4712 26.3187 26.4368C26.1694 26.4368 26.0216 26.467 25.8842 26.5256C26.7835 25.56 27.5122 24.448 28.039 23.2372C28.039 23.7082 28.3848 24.277 29.245 24.7303C29.0315 25.2575 29.0315 25.8474 29.245 26.3746L29.1563 26.4368ZM31.2757 21.3796C30.8092 21.6064 30.4339 21.9857 30.2116 22.4551C29.7108 22.27 29.1605 22.27 28.6597 22.4551C28.5208 22.5091 28.3941 22.5907 28.2873 22.695C28.7472 21.4753 28.9961 20.1858 29.0233 18.8822C29.1977 19.1692 29.4464 19.4035 29.7431 19.56C30.0398 19.7165 30.3734 19.7894 30.7081 19.771C30.7123 20.0594 30.7741 20.344 30.8899 20.6081C31.0056 20.8722 31.173 21.1103 31.3821 21.3085L31.2757 21.3796ZM34.8226 18.5711C34.8163 18.6632 34.788 18.7524 34.7402 18.8312C34.6924 18.9101 34.6264 18.9763 34.5478 19.0244C34.1449 19.264 33.6861 19.3928 33.2176 19.3977C33.4369 19.2028 33.5702 18.9289 33.5885 18.6357C33.6068 18.3426 33.5085 18.0541 33.3152 17.8334L33.2176 17.7357C34.3261 17.8245 34.8315 18.2156 34.8315 18.58L34.8226 18.5711ZM33.0491 17.629C32.785 17.4536 32.4788 17.3523 32.1624 17.3357C32.1471 17.0345 32.0965 16.7362 32.0117 16.4469C32.283 16.4989 32.5289 16.6413 32.7092 16.8511C32.8895 17.0609 32.9937 17.3257 33.0048 17.6023L33.0491 17.629ZM31.8077 14.8738C31.7807 14.5712 31.7182 14.2729 31.6215 13.985C31.8912 13.8441 32.1202 13.6359 32.2865 13.3806C32.3801 13.641 32.3838 13.9253 32.297 14.188C32.2102 14.4507 32.0379 14.6765 31.8077 14.8294V14.8738ZM33.5812 11.8786C33.6094 11.9668 33.6161 12.0604 33.6006 12.1516C33.5852 12.2429 33.5481 12.3291 33.4925 12.403C33.2102 12.7944 32.8271 13.1016 32.3841 13.2918C32.5129 13.0277 32.532 12.7232 32.4373 12.445C32.3425 12.1668 32.1417 11.9376 31.8786 11.8075L31.7456 11.7542C32.8275 11.4076 33.4305 11.5764 33.5723 11.9053L33.5812 11.8786ZM31.5683 11.6831C31.2775 11.6078 30.9723 11.6078 30.6815 11.6831C30.5522 11.4291 30.3945 11.1905 30.2116 10.9721C30.4872 10.9155 30.7739 10.9553 31.0239 11.0846C31.2739 11.2139 31.4723 11.4251 31.586 11.6831H31.5683ZM29.3248 9.65668C29.1863 9.40182 29.0197 9.16333 28.8282 8.94566C29.0234 8.71052 29.1547 8.42888 29.2095 8.12798C29.3977 8.33255 29.5114 8.5948 29.5324 8.87224C29.5533 9.14969 29.4801 9.42609 29.3248 9.65668ZM29.777 6.226C29.8373 6.29575 29.88 6.37894 29.9016 6.46863C29.9232 6.55831 29.9231 6.65188 29.9012 6.74149C29.7881 7.20003 29.5555 7.62024 29.2273 7.95912C29.2443 7.66725 29.1459 7.3804 28.9533 7.16079C28.7608 6.94117 28.4896 6.80648 28.1986 6.78593H28.0567C28.9435 6.04825 29.5288 5.96826 29.8302 6.226H29.777ZM27.8794 6.79482C27.5783 6.85233 27.2972 6.98706 27.0636 7.18588C26.8467 6.99364 26.6087 6.82666 26.3542 6.68817C26.5834 6.5347 26.8574 6.46268 27.1323 6.48362C27.4071 6.50457 27.6671 6.61727 27.8705 6.80371L27.8794 6.79482ZM25.0418 5.80828C24.815 5.62637 24.568 5.4713 24.3058 5.34611C24.3955 5.05842 24.4108 4.75257 24.3501 4.45734C24.6035 4.57266 24.8101 4.77109 24.9359 5.01992C25.0616 5.26874 25.099 5.55308 25.0418 5.82605V5.80828ZM24.1551 2.45759C24.2352 2.49994 24.3043 2.56064 24.3567 2.63476C24.4091 2.70888 24.4433 2.79435 24.4565 2.8842C24.5283 3.3487 24.4763 3.82395 24.3058 4.26181C24.2534 4.11159 24.1703 3.97395 24.0619 3.85766C23.9535 3.74137 23.8222 3.64897 23.6762 3.58634C23.5361 3.52619 23.3853 3.49518 23.2328 3.49518C23.0804 3.49518 22.9296 3.52619 22.7895 3.58634C23.286 2.59091 23.8358 2.27984 24.1728 2.42204L24.1551 2.45759ZM22.6121 3.6841C22.3574 3.85079 22.1498 4.08034 22.0091 4.35069C21.7364 4.25457 21.4538 4.18899 21.1667 4.15515C21.3194 3.92482 21.5452 3.75296 21.8076 3.66745C22.07 3.58194 22.3535 3.58781 22.6121 3.6841ZM20.2622 4.57288C20.2565 4.61118 20.2565 4.65012 20.2622 4.68842C20.4957 5.16515 20.8877 5.54542 21.3707 5.76384C21.1861 6.26579 21.1861 6.81725 21.3707 7.3192C21.4299 7.46003 21.5174 7.58711 21.6278 7.69248C20.4024 7.22891 19.1067 6.9794 17.7971 6.9548C18.2404 6.78593 18.6838 6.24378 18.737 5.25724C19.0239 5.2507 19.3066 5.1868 19.5685 5.06928C19.8304 4.95176 20.0663 4.78299 20.2622 4.57288ZM19.5706 3.87963C19.2819 3.79462 18.9843 3.74391 18.6838 3.72854C18.6672 3.4114 18.5662 3.10451 18.3912 2.83977C18.6783 2.84686 18.9537 2.95491 19.1693 3.14501C19.3849 3.33511 19.5269 3.59516 19.5706 3.87963ZM17.4956 1.13332C17.5874 1.1397 17.6764 1.16804 17.7551 1.21598C17.8338 1.26391 17.8999 1.33005 17.9478 1.40884C18.1869 1.81261 18.3154 2.2725 18.3202 2.742C18.1258 2.52225 17.8525 2.38859 17.56 2.37027C17.2676 2.35195 16.9798 2.45045 16.7596 2.64424L16.662 2.742C16.7507 1.63103 17.1409 1.13332 17.4956 1.13332ZM16.5556 2.91087C16.3806 3.17561 16.2796 3.48251 16.263 3.79964C15.9625 3.81493 15.6649 3.86565 15.3762 3.95074C15.4121 3.6598 15.5508 3.39137 15.7672 3.19409C15.9835 2.99681 16.2632 2.88372 16.5556 2.87532V2.91087ZM14.7821 4.68842L14.8531 4.75952C15.2548 5.10965 15.7662 5.30776 16.2985 5.31945C16.3079 5.85338 16.5058 6.36668 16.8571 6.76816C16.9674 6.88088 17.1004 6.96875 17.2473 7.0259C15.9218 7.03282 14.6076 7.27039 13.3633 7.72803C13.576 7.45925 13.7095 7.13621 13.7486 6.79541C13.7878 6.4546 13.7311 6.10961 13.585 5.79939C14.1055 5.57594 14.5188 5.15843 14.7378 4.63509L14.7821 4.68842ZM13.8954 4.24403C13.5932 4.27432 13.2956 4.33994 13.0086 4.43956C12.8812 4.13671 12.6724 3.8752 12.4056 3.6841C12.6654 3.59029 12.949 3.5866 13.2111 3.67362C13.4732 3.76065 13.6985 3.93335 13.851 4.16404L13.8954 4.24403ZM10.9159 2.46648C11.0038 2.4382 11.0972 2.43152 11.1883 2.44699C11.2793 2.46245 11.3653 2.49962 11.4391 2.55536C11.8296 2.83835 12.1361 3.22234 12.3258 3.66633C12.0634 3.53659 11.7605 3.51611 11.4831 3.60935C11.2056 3.70259 10.9763 3.90198 10.8449 4.16404L10.7031 4.26181C10.3661 3.19528 10.5346 2.59091 10.8627 2.4487L10.9159 2.46648ZM10.7031 4.43068C10.628 4.72215 10.628 5.02797 10.7031 5.31945C10.4404 5.44385 10.1933 5.59898 9.96706 5.78161C9.91912 5.50619 9.96581 5.22261 10.0995 4.97722C10.2332 4.73183 10.446 4.53915 10.7031 4.43068ZM8.63694 6.68817C8.38254 6.82679 8.14457 6.99376 7.92754 7.18588C7.7065 6.99374 7.44147 6.85939 7.15607 6.79482C7.35952 6.60838 7.61946 6.49568 7.89434 6.47473C8.16922 6.45379 8.44317 6.52581 8.67241 6.67928L8.63694 6.68817ZM5.21409 6.23489C5.28447 6.17603 5.36785 6.13484 5.4573 6.11475C5.54674 6.09465 5.63968 6.09623 5.7284 6.11935C6.18589 6.23268 6.60514 6.46579 6.94325 6.79482C6.78718 6.78578 6.63096 6.80994 6.48486 6.8657C6.33877 6.92146 6.20609 7.00757 6.09555 7.11837C5.985 7.22916 5.8991 7.36214 5.84346 7.50857C5.78783 7.655 5.76372 7.81158 5.77274 7.968C5.03674 7.07923 4.95693 6.49264 5.21409 6.19045V6.23489ZM5.79047 8.12798C5.84268 8.42802 5.97092 8.70958 6.16291 8.94566C5.97116 9.16314 5.80457 9.40166 5.66633 9.65668C5.51215 9.42512 5.44052 9.14815 5.46305 8.87068C5.48558 8.59321 5.60096 8.3315 5.79047 8.12798ZM4.80618 10.9721C4.62469 11.1994 4.46997 11.4469 4.34507 11.7098C4.05803 11.6198 3.75288 11.6045 3.45832 11.6653C3.57393 11.4159 3.76929 11.2122 4.01345 11.0866C4.2576 10.9611 4.53658 10.9207 4.80618 10.9721ZM1.46314 11.8608C1.50516 11.7777 1.56662 11.706 1.64228 11.6518C1.71794 11.5977 1.80556 11.5627 1.89764 11.5498C2.36186 11.4807 2.83605 11.5358 3.27211 11.7098C2.9968 11.8066 2.7707 12.0084 2.64288 12.2713C2.51505 12.5342 2.4958 12.837 2.58931 13.114L2.64251 13.2473C1.63162 12.7496 1.32126 12.1897 1.45427 11.8608H1.46314ZM2.72232 13.4073C2.88863 13.6626 3.11765 13.8707 3.38738 14.0117C3.2904 14.2847 3.22494 14.568 3.1923 14.856C2.96249 14.703 2.79102 14.4766 2.70571 14.2137C2.62039 13.9507 2.62625 13.6665 2.72232 13.4073ZM2.88194 16.4292C2.79688 16.7184 2.74628 17.0167 2.73119 17.3179C2.41477 17.3345 2.10857 17.4358 1.84444 17.6112C1.85903 17.3366 1.96464 17.0747 2.14454 16.867C2.32444 16.6593 2.56834 16.5177 2.8376 16.4647L2.88194 16.4292ZM0.14188 18.5267C0.1492 18.4338 0.178829 18.344 0.22824 18.2651C0.27765 18.1862 0.345376 18.1204 0.425639 18.0734C0.828488 17.8337 1.28733 17.705 1.75576 17.7001C1.53651 17.895 1.40316 18.1689 1.38488 18.462C1.3666 18.7552 1.46488 19.0436 1.65822 19.2643L1.75576 19.3621C0.629592 19.291 0.133012 18.9 0.133012 18.5356L0.14188 18.5267ZM1.91538 19.4688C2.17951 19.6442 2.48571 19.7454 2.80213 19.7621C2.81722 20.0632 2.86782 20.3616 2.95288 20.6508C2.68293 20.5993 2.43817 20.4581 2.25801 20.2501C2.07785 20.0421 1.97278 19.7794 1.95972 19.5043L1.91538 19.4688ZM3.2189 22.1795C3.24559 22.4821 3.3081 22.7805 3.40512 23.0683C3.1332 23.2055 2.90111 23.4106 2.73119 23.6638C2.63759 23.4034 2.63391 23.1192 2.72073 22.8565C2.80756 22.5938 2.97987 22.3679 3.21003 22.2151L3.2189 22.1795ZM1.4454 25.1747C1.41792 25.0865 1.41163 24.993 1.42704 24.9019C1.44245 24.8107 1.47912 24.7246 1.53408 24.6503C1.81642 24.2589 2.19954 23.9517 2.64251 23.7616C2.51308 24.0246 2.49264 24.3282 2.58567 24.6062C2.67869 24.8843 2.87763 25.1142 3.13909 25.2458L3.26324 25.2991C2.20801 25.6458 1.58728 25.4769 1.48974 25.148L1.4454 25.1747ZM3.42285 25.3791C3.71367 25.4544 4.01879 25.4544 4.3096 25.3791C4.44055 25.6426 4.60121 25.8901 4.78845 26.1168C4.51278 26.1733 4.22612 26.1336 3.97609 26.0043C3.72606 25.8749 3.52771 25.6637 3.41399 25.4058L3.42285 25.3791ZM5.6752 27.4055C5.81344 27.6606 5.98003 27.8991 6.17177 28.1166C5.97979 28.3526 5.85154 28.6342 5.79934 28.9342C5.60918 28.7332 5.49253 28.4735 5.46838 28.1976C5.44423 27.9216 5.514 27.6456 5.66633 27.4144L5.6752 27.4055ZM5.21409 30.8362C5.15383 30.7665 5.11111 30.6833 5.08952 30.5936C5.06792 30.5039 5.06806 30.4103 5.08994 30.3207C5.20301 29.8622 5.43559 29.442 5.76387 29.1031C5.74681 29.395 5.84524 29.6818 6.03779 29.9014C6.23035 30.121 6.50152 30.2557 6.7925 30.2763H6.93438C6.09197 31.014 5.46238 31.094 5.20522 30.8362H5.21409ZM7.15607 30.2674C7.45715 30.2099 7.73822 30.0752 7.97188 29.8763C8.18896 30.0684 8.42692 30.2354 8.68128 30.374C8.45218 30.5309 8.17697 30.6057 7.90018 30.5864C7.62339 30.567 7.36121 30.4546 7.15607 30.2674ZM9.94933 31.2362C10.1765 31.4176 10.4234 31.5726 10.6853 31.6983C10.5956 31.986 10.5803 32.2919 10.641 32.5871C10.3927 32.471 10.1905 32.2748 10.0667 32.0299C9.94293 31.7849 9.90472 31.5054 9.95819 31.2362H9.94933ZM10.8361 34.578C10.7542 34.5367 10.6834 34.4765 10.6294 34.4023C10.5755 34.3281 10.5399 34.2421 10.5257 34.1513C10.4671 33.6932 10.5282 33.2277 10.7031 32.8004C10.7979 33.078 10.9985 33.3067 11.261 33.4365C11.5235 33.5664 11.8266 33.5869 12.1041 33.4937L12.2371 33.4403C11.7406 34.4358 11.1819 34.7468 10.8538 34.6135L10.8361 34.578ZM12.379 33.3248C12.6337 33.1581 12.8414 32.9285 12.982 32.6582C13.2547 32.7546 13.5372 32.8202 13.8244 32.8537C13.6724 33.0825 13.4485 33.2539 13.1884 33.3409C12.9282 33.4278 12.6465 33.4253 12.3879 33.3337L12.379 33.3248ZM14.7378 32.436C14.7435 32.3977 14.7435 32.3588 14.7378 32.3205C14.4949 31.8327 14.086 31.4482 13.585 31.2362C13.7696 30.7342 13.7696 30.1827 13.585 29.6808C13.5311 29.5415 13.4496 29.4145 13.3456 29.3075C14.5522 29.777 15.8294 30.0384 17.1231 30.0808C16.8367 30.2555 16.603 30.5049 16.4469 30.8022C16.2907 31.0996 16.218 31.4339 16.2364 31.7694C15.6653 31.7766 15.1202 32.0099 14.72 32.4182L14.7378 32.436ZM15.4117 33.1737C15.7003 33.2589 15.998 33.3096 16.2985 33.3248C16.315 33.6419 16.4161 33.9488 16.5911 34.2136C16.3135 34.2044 16.0473 34.1009 15.8362 33.92C15.625 33.7391 15.4816 33.4916 15.4294 33.2181L15.4117 33.1737ZM17.5044 35.92C17.4126 35.9136 17.3236 35.8853 17.2449 35.8373C17.1662 35.7894 17.1001 35.7233 17.0522 35.6445C16.8131 35.2407 16.6846 34.7808 16.6798 34.3113C16.8742 34.5311 17.1475 34.6647 17.44 34.6831C17.7324 34.7014 18.0202 34.6029 18.2404 34.4091L18.338 34.3113C18.2404 35.4223 17.8503 35.92 17.4512 35.92H17.5044ZM18.4444 34.1425C18.6194 33.8777 18.7204 33.5708 18.737 33.2537C19.0375 33.2385 19.3351 33.1878 19.6238 33.1026C19.5716 33.376 19.4282 33.6235 19.2171 33.8044C19.0059 33.9853 18.7397 34.0889 18.4621 34.098L18.4444 34.1425ZM20.2179 32.3649L20.1469 32.2938C19.7452 31.9437 19.2338 31.7456 18.7015 31.7339C18.6903 31.2269 18.5092 30.7385 18.1872 30.3474C18.0804 30.2431 17.9538 30.1615 17.8148 30.1074C19.1063 30.0754 20.3833 29.826 21.5923 29.3697C21.3901 29.6406 21.2651 29.9615 21.2307 30.2981C21.1964 30.6347 21.2539 30.9743 21.3973 31.2806C20.8851 31.5057 20.4788 31.9193 20.2622 32.436L20.2179 32.3649ZM21.1046 32.8093C21.4068 32.7788 21.7044 32.7132 21.9914 32.6138C22.132 32.8841 22.3397 33.1137 22.5944 33.2803C22.3356 33.375 22.0526 33.3801 21.7906 33.2947C21.5286 33.2093 21.3027 33.0384 21.149 32.8093H21.1046ZM24.093 34.5868C24.005 34.6151 23.9116 34.6218 23.8206 34.6063C23.7295 34.5909 23.6435 34.5537 23.5698 34.498C23.1793 34.215 22.8728 33.831 22.683 33.387C22.9465 33.5161 23.2503 33.5353 23.5279 33.4403C23.8055 33.3454 24.0342 33.144 24.1639 32.8804L24.2171 32.7471C24.563 33.8314 24.3945 34.4358 24.0664 34.578L24.093 34.5868ZM24.2969 32.6049C24.372 32.3134 24.372 32.0076 24.2969 31.7161C24.559 31.5906 24.8059 31.4355 25.0329 31.2539C25.085 31.5276 25.0432 31.8108 24.9144 32.0576C24.7856 32.3045 24.5774 32.5005 24.3235 32.6138L24.2969 32.6049ZM26.3542 30.3474C26.6086 30.2088 26.8466 30.0419 27.0636 29.8497C27.2972 30.0485 27.5783 30.1832 27.8794 30.2407C27.6759 30.4272 27.416 30.5399 27.1411 30.5608C26.8662 30.5818 26.5923 30.5097 26.3631 30.3563L26.3542 30.3474ZM29.777 30.8007C29.7078 30.8617 29.6249 30.9049 29.5352 30.9266C29.4456 30.9483 29.3521 30.9478 29.2627 30.9251C28.8052 30.8118 28.386 30.5787 28.0479 30.2496C28.204 30.2587 28.3602 30.2345 28.5063 30.1787C28.6524 30.123 28.785 30.0369 28.8956 29.9261C29.0061 29.8153 29.092 29.6823 29.1477 29.5359C29.2033 29.3894 29.2274 29.2329 29.2184 29.0764C29.9455 29.9652 30.0253 30.5518 29.7682 30.854L29.777 30.8007ZM29.2095 28.8898C29.1521 28.588 29.0177 28.3063 28.8194 28.0721C29.0107 27.8544 29.1773 27.6159 29.3159 27.3611C29.4691 27.5909 29.5409 27.8654 29.52 28.1409C29.4991 28.4165 29.3867 28.677 29.2007 28.8809L29.2095 28.8898ZM30.2116 26.099C30.3922 25.8711 30.5469 25.6237 30.6727 25.3614C30.9597 25.4513 31.2648 25.4666 31.5594 25.4058C31.4447 25.658 31.2481 25.8638 31.0017 25.9897C30.7554 26.1156 30.4737 26.1541 30.2027 26.099H30.2116ZM33.5457 25.2103C33.5046 25.2923 33.4445 25.3633 33.3704 25.4174C33.2964 25.4715 33.2106 25.5071 33.1201 25.5213C32.6588 25.5889 32.1878 25.5337 31.7545 25.3614C32.0314 25.2663 32.2596 25.0652 32.3892 24.8021C32.5188 24.539 32.5392 24.2353 32.4462 23.9571L32.393 23.8238C33.3861 24.3215 33.6965 24.8814 33.5546 25.2103H33.5457ZM32.2954 23.6638C32.1291 23.4085 31.9001 23.2004 31.6303 23.0594C31.7297 22.7718 31.7952 22.4735 31.8254 22.1706C32.0556 22.3235 32.2279 22.5493 32.3147 22.812C32.4016 23.0747 32.3979 23.359 32.3043 23.6194L32.2954 23.6638Z" fill="black"/>
<path d="M41.162 15H42.534V11.01H44.83L47.084 15H48.68L46.258 10.772C46.8927 10.5573 47.3967 10.1933 47.77 9.68C48.1433 9.15733 48.33 8.52733 48.33 7.79C48.33 7.12733 48.1807 6.558 47.882 6.082C47.5927 5.59667 47.1867 5.22333 46.664 4.962C46.1413 4.70067 45.5347 4.57 44.844 4.57H41.162V15ZM42.534 9.75V5.83H44.886C45.502 5.83 45.9967 6.00733 46.37 6.362C46.7527 6.70733 46.944 7.18333 46.944 7.79C46.944 8.38733 46.7527 8.86333 46.37 9.218C45.9967 9.57267 45.502 9.75 44.886 9.75H42.534ZM53.1343 15.168C53.909 15.168 54.581 14.986 55.1503 14.622C55.7196 14.258 56.121 13.8147 56.3543 13.292L55.2623 12.732C55.0476 13.096 54.7676 13.3947 54.4223 13.628C54.077 13.8613 53.6523 13.978 53.1483 13.978C52.7283 13.978 52.3363 13.8847 51.9723 13.698C51.6176 13.502 51.3236 13.2267 51.0903 12.872C50.8663 12.5173 50.745 12.0973 50.7263 11.612H56.4943C56.541 11.36 56.5643 11.1267 56.5643 10.912C56.5643 10.2867 56.4243 9.69867 56.1443 9.148C55.8643 8.59733 55.4583 8.14933 54.9263 7.804C54.4036 7.45867 53.769 7.286 53.0223 7.286C52.3223 7.286 51.697 7.454 51.1463 7.79C50.5956 8.126 50.157 8.59267 49.8303 9.19C49.513 9.778 49.3543 10.45 49.3543 11.206C49.3543 11.962 49.5176 12.6387 49.8443 13.236C50.171 13.8333 50.619 14.3047 51.1883 14.65C51.7576 14.9953 52.4063 15.168 53.1343 15.168ZM53.0223 8.448C53.405 8.448 53.755 8.53667 54.0723 8.714C54.3896 8.882 54.6463 9.12 54.8423 9.428C55.0383 9.736 55.141 10.0907 55.1503 10.492H50.7543C50.8476 9.85733 51.109 9.358 51.5383 8.994C51.9676 8.63 52.4623 8.448 53.0223 8.448ZM58.2619 17.8H59.5639V13.95C59.8532 14.342 60.2219 14.6453 60.6699 14.86C61.1272 15.0653 61.6266 15.168 62.1679 15.168C62.8866 15.168 63.5259 14.9953 64.0859 14.65C64.6552 14.3047 65.1032 13.838 65.4299 13.25C65.7566 12.6527 65.9199 11.9807 65.9199 11.234C65.9199 10.478 65.7566 9.806 65.4299 9.218C65.1032 8.62067 64.6599 8.14933 64.0999 7.804C63.5399 7.45867 62.9006 7.286 62.1819 7.286C61.6126 7.286 61.0992 7.398 60.6419 7.622C60.1939 7.83667 59.8252 8.13533 59.5359 8.518V7.454H58.2619V17.8ZM62.0699 13.908C61.6032 13.908 61.1786 13.7913 60.7959 13.558C60.4132 13.3247 60.1099 13.0073 59.8859 12.606C59.6712 12.1953 59.5639 11.738 59.5639 11.234C59.5639 10.7207 59.6712 10.2633 59.8859 9.862C60.1099 9.46067 60.4132 9.14333 60.7959 8.91C61.1786 8.66733 61.6032 8.546 62.0699 8.546C62.5459 8.546 62.9659 8.66267 63.3299 8.896C63.7032 9.12933 63.9972 9.45133 64.2119 9.862C64.4266 10.2633 64.5339 10.7207 64.5339 11.234C64.5339 11.738 64.4266 12.1953 64.2119 12.606C63.9972 13.0073 63.7032 13.3247 63.3299 13.558C62.9659 13.7913 62.5459 13.908 62.0699 13.908ZM71.2111 15.168C71.9205 15.168 72.5691 15 73.1571 14.664C73.7451 14.328 74.2118 13.8613 74.5571 13.264C74.9118 12.6667 75.0891 11.9853 75.0891 11.22C75.0891 10.464 74.9165 9.792 74.5711 9.204C74.2351 8.60667 73.7731 8.14 73.1851 7.804C72.5971 7.45867 71.9391 7.286 71.2111 7.286C70.4738 7.286 69.8111 7.45867 69.2231 7.804C68.6351 8.14 68.1685 8.60667 67.8231 9.204C67.4871 9.792 67.3191 10.464 67.3191 11.22C67.3191 11.976 67.4918 12.6527 67.8371 13.25C68.1825 13.8473 68.6491 14.3187 69.2371 14.664C69.8251 15 70.4831 15.168 71.2111 15.168ZM71.2111 13.908C70.7351 13.908 70.3058 13.7913 69.9231 13.558C69.5498 13.3247 69.2511 13.0073 69.0271 12.606C68.8031 12.1953 68.6911 11.7333 68.6911 11.22C68.6911 10.7067 68.8031 10.2493 69.0271 9.848C69.2511 9.44667 69.5498 9.12933 69.9231 8.896C70.3058 8.66267 70.7351 8.546 71.2111 8.546C71.6778 8.546 72.0978 8.66267 72.4711 8.896C72.8538 9.12933 73.1525 9.44667 73.3671 9.848C73.5911 10.2493 73.7031 10.7067 73.7031 11.22C73.7031 11.7333 73.5911 12.1953 73.3671 12.606C73.1525 13.0073 72.8538 13.3247 72.4711 13.558C72.0978 13.7913 71.6778 13.908 71.2111 13.908ZM76.7873 15H78.0893V10.506C78.0893 9.89933 78.2526 9.43267 78.5793 9.106C78.906 8.77 79.3353 8.602 79.8673 8.602H80.5253V7.37H80.0633C79.5966 7.37 79.1953 7.454 78.8593 7.622C78.5233 7.78067 78.2573 8.02333 78.0613 8.35V7.454H76.7873V15ZM84.8162 15.084C84.9189 15.084 85.0449 15.0747 85.1942 15.056C85.3435 15.0467 85.4789 15.028 85.6002 15V13.852C85.5162 13.8613 85.4275 13.8707 85.3342 13.88C85.2409 13.8893 85.1569 13.894 85.0822 13.894C84.6249 13.894 84.2982 13.782 84.1022 13.558C83.9155 13.3247 83.8222 13.0167 83.8222 12.634V8.7H85.5162V7.454H83.8222V5.718H82.5202V6.334C82.5202 6.67933 82.4222 6.95467 82.2262 7.16C82.0302 7.356 81.7642 7.454 81.4282 7.454H81.1482V8.7H82.5202V12.676C82.5202 13.4413 82.7162 14.034 83.1082 14.454C83.5095 14.874 84.0789 15.084 84.8162 15.084ZM89.4036 15.168C89.9543 15.168 90.4489 15.0653 90.8876 14.86C91.3263 14.6453 91.6809 14.3653 91.9516 14.02V15H93.2256V9.876C93.2256 9.36267 93.0996 8.91467 92.8476 8.532C92.6049 8.14 92.2643 7.83667 91.8256 7.622C91.3869 7.398 90.8783 7.286 90.2996 7.286C89.8516 7.286 89.4223 7.36533 89.0116 7.524C88.6009 7.68267 88.2416 7.902 87.9336 8.182C87.6256 8.45267 87.4016 8.76067 87.2616 9.106L88.3956 9.694C88.5543 9.33933 88.7969 9.05 89.1236 8.826C89.4503 8.602 89.8329 8.49 90.2716 8.49C90.7663 8.49 91.1629 8.62067 91.4616 8.882C91.7696 9.134 91.9236 9.46533 91.9236 9.876V10.226L89.3476 10.646C88.4983 10.786 87.8729 11.0707 87.4716 11.5C87.0796 11.92 86.8836 12.4287 86.8836 13.026C86.8836 13.6607 87.1169 14.1787 87.5836 14.58C88.0596 14.972 88.6663 15.168 89.4036 15.168ZM88.2556 12.984C88.2556 12.6573 88.3629 12.382 88.5776 12.158C88.8016 11.934 89.1563 11.78 89.6416 11.696L91.9236 11.318V11.794C91.9236 12.214 91.8256 12.5967 91.6296 12.942C91.4336 13.2873 91.1583 13.5627 90.8036 13.768C90.4489 13.964 90.0336 14.062 89.5576 14.062C89.1843 14.062 88.8716 13.9593 88.6196 13.754C88.3769 13.5487 88.2556 13.292 88.2556 12.984ZM41.316 33H42.226V28.156H48.106V33H49.016V22.57H48.106V27.316H42.226V22.57H41.316V33ZM55.0263 33.168C55.7449 33.168 56.3796 32.9953 56.9303 32.65C57.4809 32.3047 57.8823 31.8707 58.1343 31.348L57.4203 30.97C57.1683 31.3993 56.8416 31.7447 56.4403 32.006C56.0389 32.258 55.5676 32.384 55.0263 32.384C54.5223 32.384 54.0556 32.2673 53.6263 32.034C53.2063 31.7913 52.8656 31.4553 52.6043 31.026C52.3429 30.5967 52.2029 30.102 52.1843 29.542H58.2603C58.2789 29.43 58.2929 29.3227 58.3023 29.22C58.3116 29.1173 58.3163 29.0193 58.3163 28.926C58.3163 28.2913 58.1716 27.708 57.8823 27.176C57.6023 26.644 57.2056 26.2147 56.6923 25.888C56.1789 25.5613 55.5816 25.398 54.9003 25.398C54.2283 25.398 53.6216 25.566 53.0803 25.902C52.5389 26.238 52.1096 26.7 51.7923 27.288C51.4749 27.8667 51.3163 28.5247 51.3163 29.262C51.3163 29.9993 51.4796 30.6667 51.8063 31.264C52.1329 31.852 52.5763 32.3187 53.1363 32.664C53.6963 33 54.3263 33.168 55.0263 33.168ZM54.9003 26.182C55.3763 26.182 55.8056 26.2987 56.1883 26.532C56.5709 26.756 56.8743 27.064 57.0983 27.456C57.3223 27.848 57.4296 28.2867 57.4203 28.772H52.1983C52.2543 28.2587 52.4083 27.8107 52.6603 27.428C52.9123 27.036 53.2343 26.7327 53.6263 26.518C54.0183 26.294 54.4429 26.182 54.9003 26.182ZM62.4509 33.168C63.0762 33.168 63.6315 33.028 64.1169 32.748C64.6115 32.4587 64.9709 32.1133 65.1949 31.712V33H66.0349V27.862C66.0349 27.3767 65.9135 26.952 65.6709 26.588C65.4375 26.2147 65.1155 25.9253 64.7049 25.72C64.2942 25.5053 63.8182 25.398 63.2769 25.398C62.8475 25.398 62.4415 25.4727 62.0589 25.622C61.6762 25.7713 61.3402 25.972 61.0509 26.224C60.7615 26.476 60.5469 26.7513 60.4069 27.05L61.1629 27.456C61.3589 27.0733 61.6435 26.77 62.0169 26.546C62.3902 26.3127 62.8102 26.196 63.2769 26.196C63.8462 26.196 64.3082 26.35 64.6629 26.658C65.0175 26.966 65.1949 27.3673 65.1949 27.862V28.282L62.4089 28.744C61.5502 28.8933 60.9342 29.1827 60.5609 29.612C60.1969 30.0413 60.0149 30.5267 60.0149 31.068C60.0149 31.4787 60.1222 31.8427 60.3369 32.16C60.5515 32.4773 60.8409 32.7247 61.2049 32.902C61.5782 33.0793 61.9935 33.168 62.4509 33.168ZM60.8969 31.04C60.8969 30.6667 61.0275 30.34 61.2889 30.06C61.5502 29.78 61.9982 29.5887 62.6329 29.486L65.1949 29.066V29.71C65.1949 30.1953 65.0829 30.6433 64.8589 31.054C64.6349 31.4647 64.3222 31.7913 63.9209 32.034C63.5195 32.2767 63.0482 32.398 62.5069 32.398C62.0495 32.398 61.6669 32.272 61.3589 32.02C61.0509 31.768 60.8969 31.4413 60.8969 31.04ZM68.4883 33H69.3283V22.402H68.4883V33ZM74.4748 33.084C74.5494 33.084 74.6521 33.0747 74.7828 33.056C74.9134 33.0467 75.0301 33.028 75.1328 33V32.244C75.0674 32.2533 74.9788 32.2627 74.8668 32.272C74.7641 32.2813 74.6754 32.286 74.6008 32.286C74.2648 32.286 74.0081 32.2253 73.8308 32.104C73.6534 31.9827 73.5321 31.824 73.4668 31.628C73.4108 31.432 73.3828 31.2313 73.3828 31.026V26.364H75.0068V25.566H73.3828V23.83H72.5428V24.628C72.5428 24.9173 72.4634 25.146 72.3048 25.314C72.1554 25.482 71.9454 25.566 71.6748 25.566H71.1428V26.364H72.5428V31.026C72.5428 31.698 72.7061 32.2113 73.0328 32.566C73.3688 32.9113 73.8494 33.084 74.4748 33.084ZM77.2858 33H78.1258V28.52C78.1258 27.848 78.3172 27.2973 78.6998 26.868C79.0825 26.4387 79.5865 26.224 80.2118 26.224C80.7998 26.224 81.2898 26.4153 81.6818 26.798C82.0832 27.1807 82.2838 27.708 82.2838 28.38V33H83.1238V28.142C83.1238 27.6007 82.9978 27.1247 82.7458 26.714C82.4938 26.3033 82.1578 25.9813 81.7378 25.748C81.3178 25.5147 80.8512 25.398 80.3378 25.398C79.8618 25.398 79.4278 25.5007 79.0358 25.706C78.6438 25.9113 78.3405 26.196 78.1258 26.56V22.402H77.2858V33Z" fill="black"/>
</svg>
