<svg width="434" height="325" viewBox="0 0 434 325" fill="none" xmlns="http://www.w3.org/2000/svg">
<path d="M151 183C150.448 183 150 183.449 150.004 184.001C150.266 221.3 165.197 257.015 191.591 283.409C218.221 310.039 254.339 325 292 325C329.661 325 365.779 310.039 392.409 283.409C418.803 257.015 433.734 221.3 433.996 184.001C434 183.449 433.552 183 433 183L292 183L151 183Z" fill="#A91079"/>
<path d="M81 184C80.4477 184 79.9996 183.551 80.0035 182.999C80.2661 145.965 95.0913 110.505 121.298 84.2979C147.505 58.0913 182.965 43.2661 219.999 43.0035C220.551 42.9996 221 43.4477 221 44V112.178C221 112.731 220.552 113.178 219.999 113.185C201.578 113.445 183.967 120.876 170.922 133.922C157.876 146.967 150.445 164.578 150.185 182.999C150.178 183.552 149.731 184 149.178 184L81 184Z" fill="#570A57"/>
<path d="M61 121C61 121.552 61.4478 122.001 62 121.992C69.6701 121.866 77.2509 120.295 84.3437 117.357C91.7445 114.291 98.4691 109.798 104.134 104.134C109.798 98.4691 114.291 91.7446 117.357 84.3437C120.422 76.9428 122 69.0106 122 61C122 52.9894 120.422 45.0572 117.357 37.6563C114.291 30.2554 109.798 23.5309 104.134 17.8665C98.4691 12.2021 91.7445 7.70888 84.3437 4.64335C77.2509 1.70543 69.6701 0.133947 62 0.00819678C61.4478 -0.00085656 61 0.447715 61 1L61 61L61 121Z" fill="#FAC213"/>
<path d="M150 304C150 304.552 150.448 305.001 151 304.992C158.67 304.866 166.251 303.295 173.344 300.357C180.745 297.291 187.469 292.798 193.134 287.134C198.798 281.469 203.291 274.745 206.357 267.344C209.422 259.943 211 252.011 211 244C211 235.989 209.422 228.057 206.357 220.656C203.291 213.255 198.798 206.531 193.134 200.866C187.469 195.202 180.745 190.709 173.344 187.643C166.251 184.705 158.67 183.134 151 183.008C150.448 182.999 150 183.448 150 184L150 244L150 304Z" fill="#2E0249"/>
</svg>
