<svg xmlns="http://www.w3.org/2000/svg" version="1.1" xmlns:xlink="http://www.w3.org/1999/xlink" xmlns:svgjs="http://svgjs.com/svgjs" width="1000" height="1000"><rect width="1000" height="1000" rx="150" ry="150" fill="#ffffff"></rect><g transform="matrix(22.857142857142858,0,0,22.857142857142858,100,100)"><svg xmlns="http://www.w3.org/2000/svg" version="1.1" xmlns:xlink="http://www.w3.org/1999/xlink" xmlns:svgjs="http://svgjs.com/svgjs" width="35" height="35"><svg width="35" height="35" viewBox="0 0 35 35" fill="none" xmlns="http://www.w3.org/2000/svg">
<path d="M33.2265 18.7798C34.4325 18.6732 35 18.0866 35 17.5356C35 16.9845 34.4591 16.3979 33.2265 16.2913C33.2421 15.9498 33.1635 15.6107 32.9992 15.3112C32.8349 15.0117 32.5914 14.7634 32.2954 14.5937C32.5076 14.3245 32.6401 14.001 32.6777 13.66C32.7153 13.319 32.6566 12.9742 32.5082 12.6651C33.5901 12.1051 33.8561 11.3497 33.6521 10.8875C33.4482 10.4253 32.7211 10.0432 31.5594 10.4076C31.0983 9.51879 30.5042 9.17217 30.0253 9.19883C30.1259 8.8674 30.13 8.51412 30.0374 8.18041C29.9447 7.84669 29.759 7.54636 29.5022 7.31463C30.2825 6.42585 30.2382 5.53707 29.8746 5.19045C29.511 4.84383 28.6863 4.77273 27.7553 5.56374C27.5309 5.30193 27.2353 5.11125 26.9046 5.01498C26.574 4.91871 26.2225 4.921 25.8931 5.02158C25.8931 4.55053 25.565 3.96394 24.6871 3.50178C25.0595 2.33748 24.6871 1.61757 24.2083 1.40427C23.7294 1.19096 22.9491 1.46648 22.4348 2.55079C22.1242 2.38056 21.7699 2.30737 21.4175 2.34063C21.0651 2.37389 20.7307 2.51208 20.4573 2.73743C20.2888 2.28415 19.739 1.84865 18.7459 1.77755C18.6395 0.559929 18.0542 0 17.5044 0C16.9546 0 16.3694 0.542153 16.263 1.77755C15.2787 1.86643 14.7466 2.26638 14.5693 2.66633C14.3007 2.45365 13.9779 2.32088 13.6377 2.28317C13.2975 2.24545 12.9535 2.30431 12.645 2.45302C12.0864 1.3776 11.3327 1.08431 10.8272 1.3065C10.3218 1.52869 9.9848 2.23972 10.3484 3.40401C9.46162 3.86618 9.11578 4.46166 9.14239 4.94159C8.81171 4.84084 8.45924 4.83666 8.12628 4.92953C7.79332 5.02241 7.49368 5.20849 7.26248 5.46597C6.37573 4.68385 5.48898 4.72829 5.14315 5.09269C4.79731 5.45708 4.72637 6.28365 5.51558 7.21686C5.25437 7.44175 5.06413 7.73798 4.96808 8.06942C4.87202 8.40085 4.87431 8.75314 4.97466 9.08329C4.49582 9.08329 3.91943 9.41214 3.45832 10.292C2.29668 9.91874 1.56955 10.292 1.36559 10.772C1.16164 11.2519 1.42767 12.034 2.5095 12.5495C2.33541 12.8674 2.2625 13.2311 2.30054 13.5917C2.33858 13.9523 2.48576 14.2927 2.72232 14.567C2.27008 14.727 1.83557 15.2692 1.7735 16.2646C0.549785 16.389 0 16.9756 0 17.5267C0 18.0777 0.540917 18.6732 1.7735 18.7798C1.7629 19.1201 1.84579 19.4567 2.01312 19.753C2.18045 20.0492 2.42578 20.2937 2.72232 20.4596C2.51201 20.7297 2.38073 21.0531 2.34315 21.3937C2.30557 21.7343 2.36316 22.0786 2.5095 22.3883C1.42767 22.9482 1.14391 23.7037 1.36559 24.1658C1.58728 24.628 2.29668 25.0102 3.45832 24.6458C3.91943 25.5345 4.51355 25.8812 4.9924 25.8545C4.89188 26.1859 4.8877 26.5392 4.98037 26.8729C5.07303 27.2066 5.25869 27.507 5.51558 27.7387C4.73524 28.6275 4.77958 29.5163 5.14315 29.8629C5.50671 30.2095 6.33139 30.2806 7.26248 29.4896C7.49017 29.7469 7.78588 29.9344 8.11542 30.0303C8.44495 30.1263 8.79485 30.1268 9.12465 30.0317C9.12465 30.5117 9.45275 31.0894 10.3306 31.5515C9.9582 32.7158 10.3306 33.4446 10.8095 33.6491C11.2883 33.8535 12.0687 33.5868 12.583 32.5025C12.8926 32.6572 13.2405 32.7177 13.584 32.6766C13.9275 32.6356 14.2515 32.4947 14.5161 32.2715C14.6757 32.7247 15.2166 33.1602 16.2098 33.2224C16.3339 34.449 16.9192 35 17.469 35C18.0187 35 18.604 34.4578 18.7104 33.2224C19.0527 33.2553 19.3974 33.1921 19.7059 33.0399C20.0144 32.8876 20.2746 32.6523 20.4573 32.3603C20.7264 32.5721 21.0491 32.7042 21.3891 32.7419C21.7291 32.7796 22.0728 32.7213 22.3816 32.5736C22.9491 33.658 23.7028 33.9246 24.1994 33.7202C24.696 33.5157 25.0418 32.7869 24.6782 31.6227C25.565 31.1605 25.9108 30.565 25.8842 30.0851C26.2149 30.1858 26.5674 30.19 26.9003 30.0971C27.2333 30.0043 27.5329 29.8182 27.7641 29.5607C28.6509 30.3428 29.5376 30.2984 29.8835 29.934C30.2293 29.5696 30.3002 28.743 29.511 27.8098C29.7678 27.5816 29.9548 27.2852 30.0505 26.9549C30.1462 26.6246 30.1467 26.2739 30.0519 25.9434C30.5308 25.9434 31.1072 25.6145 31.5683 24.7346C32.7299 25.1079 33.4571 24.7346 33.661 24.2547C33.865 23.7748 33.5989 22.9926 32.5171 22.4771C32.6714 22.1668 32.7317 21.8181 32.6908 21.4738C32.6498 21.1296 32.5093 20.8048 32.2865 20.5396C32.7388 20.3796 33.1733 19.8375 33.2354 18.8421M32.1269 19.7308C32.2118 19.4415 32.2624 19.1432 32.2777 18.8421C32.5941 18.8254 32.9003 18.7242 33.1644 18.5488C33.1485 18.8183 33.0442 19.075 32.8679 19.2791C32.6915 19.4831 32.4529 19.6232 32.189 19.6775L32.1269 19.7308ZM32.526 21.5617C33.3418 21.9705 33.5546 22.4949 33.4127 22.8415C33.3761 22.9188 33.3242 22.9878 33.2602 23.0443C33.1962 23.1008 33.1213 23.1437 33.0403 23.1704C32.839 23.5754 32.4912 23.8883 32.0677 24.0451C31.6443 24.202 31.1771 24.1912 30.7613 24.0147C30.686 24.2359 30.555 24.4339 30.381 24.5896C30.207 24.7453 29.996 24.8534 29.7682 24.9035C29.6027 24.7218 29.491 24.4975 29.4456 24.2558C29.4002 24.014 29.4228 23.7644 29.511 23.5348C28.4558 23.0282 28.1277 22.4505 28.2696 22.1127C28.4115 21.775 29.0499 21.5973 30.1583 21.9883C30.2529 21.7537 30.4126 21.5512 30.6185 21.4047C30.8244 21.2582 31.0678 21.1739 31.32 21.1618C31.4447 21.3537 31.519 21.5741 31.5361 21.8025C31.5531 22.0309 31.5124 22.2599 31.4175 22.4683V22.5394L32.526 21.5617ZM29.6174 26.45C30.2116 27.1432 30.2204 27.712 29.9544 27.9698C29.8923 28.0295 29.8184 28.0754 29.7374 28.1044C29.6564 28.1335 29.5702 28.1452 29.4844 28.1386C29.0899 28.0948 28.7214 27.9195 28.4381 27.6409C28.2817 27.8076 28.0862 27.9324 27.8693 28.0038C27.6524 28.0753 27.4211 28.0911 27.1966 28.0498C26.8522 28.0122 26.5367 27.8397 26.3187 27.5698C25.5384 26.6811 25.432 26.0411 25.7157 25.7923C25.9995 25.5434 26.6025 25.6234 27.4892 26.3966C27.6664 26.2271 27.8873 26.1105 28.1271 26.0603C28.3668 26.01 28.6159 26.028 28.846 26.1122C28.8892 26.3352 28.8752 26.5655 28.8054 26.7815C28.7356 26.9976 28.6123 27.1924 28.4469 27.3476L29.6174 26.45ZM23.9156 30.8139C24.1994 31.7026 23.9866 32.2092 23.6407 32.3514C23.5626 32.3862 23.478 32.4042 23.3925 32.4042C23.3069 32.4042 23.2223 32.3862 23.1442 32.3514C22.7904 32.1533 22.515 31.8396 22.3638 31.4627C22.1557 31.5569 21.9274 31.5973 21.6996 31.5803C21.4719 31.5632 21.2521 31.4891 21.0603 31.3649C21.0699 31.1277 21.1434 30.8975 21.273 30.6988C21.4026 30.5001 21.5834 30.3402 21.7963 30.2362C21.4061 29.1252 21.5835 28.4586 21.9204 28.352C22.2574 28.2453 22.8072 28.5475 23.3215 29.6051C23.5504 29.5157 23.7997 29.4924 24.0411 29.538C24.2825 29.5836 24.5064 29.6961 24.6871 29.8629C24.6871 30.1828 24.4211 30.565 23.8536 30.8583L23.9156 30.8139ZM18.3646 32.2626C18.3025 33.1513 17.8946 33.578 17.531 33.578C17.445 33.5758 17.3604 33.5557 17.2825 33.5189C17.2047 33.4822 17.1353 33.4297 17.0788 33.3647C16.8266 33.0495 16.6889 32.6577 16.6886 32.2537C16.4592 32.2618 16.2315 32.2114 16.0267 32.1073C15.822 32.0031 15.647 31.8486 15.5181 31.6582C15.6216 31.4333 15.7864 31.2422 15.9935 31.107C16.2005 30.9717 16.4415 30.8979 16.6886 30.8939C16.7507 29.7207 17.1586 29.1963 17.5222 29.1963C17.8857 29.1963 18.2936 29.7296 18.3557 30.8939C18.6007 30.902 18.8386 30.9787 19.0423 31.1154C19.2461 31.252 19.4076 31.4431 19.5085 31.6671C19.3808 31.8539 19.2083 32.0055 19.0068 32.108C18.8054 32.2105 18.5815 32.2606 18.3557 32.2537L18.3646 32.2626ZM6.0565 17.5444C6.0565 15.2772 6.72717 13.0609 7.98371 11.1756C9.24026 9.29038 11.0263 7.82085 13.116 6.95282C15.2057 6.08478 17.5052 5.85721 19.724 6.29888C21.9427 6.74055 23.9809 7.83162 25.5811 9.43417C27.1812 11.0367 28.2714 13.0788 28.7138 15.3022C29.1561 17.5257 28.9309 19.8307 28.0664 21.9258C27.202 24.021 25.7372 25.8122 23.8572 27.0731C21.9772 28.334 19.7665 29.0079 17.5044 29.0096C14.4705 29.0073 11.5614 27.7989 9.41524 25.6495C7.2691 23.5001 6.06119 20.5853 6.0565 17.5444ZM13.186 30.2362C13.4091 30.3362 13.6002 30.4963 13.738 30.6988C13.8758 30.9012 13.9548 31.1379 13.9663 31.3827C13.7748 31.5077 13.5549 31.5822 13.3271 31.5993C13.0992 31.6164 12.8707 31.5755 12.6628 31.4804C12.2549 32.2981 11.7317 32.5114 11.3859 32.3692C11.3085 32.333 11.2394 32.2811 11.183 32.2169C11.1265 32.1526 11.0839 32.0774 11.0578 31.9959C10.9473 31.6119 10.9691 31.2017 11.1198 30.8316C10.8991 30.7561 10.7016 30.6248 10.5463 30.4504C10.3909 30.2761 10.2831 30.0645 10.2331 29.8362C10.4126 29.6705 10.6344 29.5579 10.8739 29.5108C11.1134 29.4638 11.3612 29.4841 11.5898 29.5696C12.1041 28.5119 12.6716 28.1831 13.0086 28.3164C13.3456 28.4497 13.5229 29.0985 13.1328 30.2006L13.186 30.2362ZM11.2706 29.3474C10.7446 29.1334 10.1561 29.1334 9.6301 29.3474V29.2496C9.59272 28.7164 9.36993 28.2131 9.00051 27.8276C9.37185 27.4433 9.59497 26.9393 9.6301 26.4055C9.63264 26.2528 9.6024 26.1012 9.54142 25.9611C10.4856 26.8597 11.5737 27.5928 12.7603 28.1298C12.2992 28.1298 11.7228 28.4764 11.2706 29.3385V29.3474ZM7.72359 28.6097C7.03192 29.2052 6.4644 29.2141 6.20725 28.9474C6.1462 28.881 6.10031 28.8021 6.07275 28.7162C6.04518 28.6303 6.03661 28.5393 6.04763 28.4497C6.09139 28.0543 6.26625 27.685 6.54421 27.401C6.37652 27.2453 6.25111 27.0493 6.17975 26.8317C6.1084 26.614 6.09344 26.3817 6.13631 26.1567C6.3664 26.0725 6.61542 26.0545 6.85519 26.1047C7.09496 26.155 7.3159 26.2715 7.49303 26.4411C8.37978 25.659 9.02711 25.5523 9.26653 25.8367C9.50595 26.1211 9.43501 26.7255 8.66354 27.6143C8.82645 27.792 8.93744 28.0112 8.98436 28.2479C9.03128 28.4846 9.01232 28.7297 8.92957 28.9563C8.70801 29.0079 8.47667 28.9989 8.25982 28.9301C8.04296 28.8613 7.84856 28.7353 7.69698 28.5653L7.72359 28.6097ZM2.67798 23.7125C2.6438 23.6341 2.62616 23.5493 2.62616 23.4637C2.62616 23.378 2.6438 23.2933 2.67798 23.2148C2.87572 22.8602 3.18867 22.5842 3.56473 22.4327C3.4707 22.2241 3.43036 21.9952 3.4474 21.767C3.46445 21.5388 3.53832 21.3184 3.66227 21.1262C3.90827 21.1351 4.14681 21.2132 4.35065 21.3515C4.55449 21.4898 4.71542 21.6827 4.81505 21.9083C5.92349 21.5173 6.58855 21.695 6.69496 22.0328C6.80137 22.3705 6.50874 22.9215 5.46238 23.4281C5.55058 23.6577 5.57324 23.9074 5.52782 24.1491C5.4824 24.3909 5.37069 24.6152 5.20522 24.7969C4.97742 24.7468 4.76635 24.6386 4.59238 24.483C4.41842 24.3273 4.28743 24.1293 4.21206 23.9081C3.32531 24.2191 2.80213 24.0058 2.66025 23.6592L2.67798 23.7125ZM1.46314 17.5711C1.46533 17.4849 1.48538 17.4001 1.52202 17.322C1.55865 17.244 1.61108 17.1745 1.67596 17.1178C1.99036 16.865 2.38131 16.7271 2.78439 16.7268C2.7763 16.4968 2.82656 16.2685 2.93047 16.0634C3.03438 15.8582 3.18854 15.6828 3.37851 15.5536C3.60295 15.6573 3.79359 15.8225 3.9285 16.03C4.06342 16.2376 4.13712 16.4791 4.14112 16.7268C5.31163 16.789 5.83481 17.1978 5.83481 17.5622C5.83481 17.9266 5.31163 18.3354 4.14112 18.3977C4.1377 18.6432 4.06622 18.883 3.93468 19.0901C3.80315 19.2973 3.61673 19.4637 3.39625 19.5708C3.20627 19.4417 3.05211 19.2663 2.94821 19.0611C2.8443 18.8559 2.79404 18.6276 2.80213 18.3977C1.91538 18.3354 1.48974 17.9355 1.48974 17.5622L1.46314 17.5711ZM3.60907 12.6562C2.79326 12.2473 2.58044 11.723 2.72232 11.3763C2.75849 11.2988 2.81023 11.2296 2.87432 11.173C2.9384 11.1164 3.01344 11.0737 3.09476 11.0475C3.47793 10.9367 3.88717 10.9586 4.2564 11.1097C4.33177 10.8885 4.46275 10.6905 4.63672 10.5348C4.81069 10.3791 5.02176 10.271 5.24956 10.2209C5.41112 10.4013 5.51981 10.6229 5.56362 10.8613C5.60744 11.0997 5.58467 11.3456 5.49785 11.5719C6.55308 12.0785 6.88118 12.6562 6.7393 12.9939C6.59742 13.3316 5.95896 13.5094 4.85052 13.1183C4.75413 13.3459 4.59569 13.5417 4.39336 13.6832C4.19104 13.8247 3.95302 13.9061 3.70661 13.9182C3.59597 13.7356 3.52952 13.5296 3.51258 13.3166C3.49565 13.1036 3.52869 12.8896 3.60907 12.6917V12.6562ZM6.52648 7.74124C5.93235 7.04799 5.93235 6.47918 6.18951 6.22143C6.25397 6.15987 6.33088 6.11293 6.41503 6.0838C6.49918 6.05466 6.5886 6.04401 6.67722 6.05256C7.07175 6.09643 7.4402 6.27168 7.72359 6.55028C7.87993 6.38356 8.07548 6.25879 8.29235 6.18737C8.50923 6.11595 8.7405 6.10016 8.96504 6.14144C9.04907 6.37206 9.06702 6.62165 9.01688 6.86197C8.96673 7.10228 8.85048 7.32374 8.68128 7.50127C9.46161 8.39005 9.56803 9.03885 9.28427 9.27882C9.00051 9.51879 8.39752 9.45658 7.51077 8.67445C7.33364 8.84404 7.11269 8.96056 6.87292 9.01082C6.63315 9.06108 6.38413 9.04309 6.15404 8.95886C6.10423 8.73812 6.11414 8.50805 6.18273 8.29243C6.25132 8.07681 6.37611 7.88346 6.54421 7.73235L6.52648 7.74124ZM11.111 4.25724C10.8272 3.36846 11.04 2.86186 11.3859 2.71965C11.4642 2.6854 11.5487 2.66772 11.6342 2.66772C11.7196 2.66772 11.8041 2.6854 11.8824 2.71965C12.2362 2.91784 12.5116 3.2315 12.6628 3.60843C12.8709 3.51419 13.0992 3.47376 13.327 3.49084C13.5547 3.50792 13.7745 3.58196 13.9663 3.7062C13.9558 3.95121 13.8772 4.18841 13.7393 4.391C13.6014 4.5936 13.4097 4.75352 13.186 4.85272C13.5761 5.96369 13.3988 6.63027 13.0618 6.73692C12.7249 6.84358 12.1751 6.54139 11.6519 5.49264C11.423 5.58208 11.1737 5.60534 10.9323 5.55978C10.6908 5.51421 10.467 5.40165 10.2863 5.23489C10.2863 4.90604 10.5523 4.53276 11.1198 4.23057L11.111 4.25724ZM11.3238 5.7326C11.5359 6.21982 11.9127 6.61639 12.3879 6.85246C12.5308 6.91352 12.6848 6.9438 12.8401 6.94134C11.6306 7.48498 10.5237 8.23363 9.56802 9.15439C9.66855 8.82297 9.67272 8.46969 9.58006 8.13597C9.4874 7.80225 9.30173 7.50192 9.04484 7.27019C9.2447 7.06784 9.40248 6.82772 9.50903 6.56378C9.61559 6.29984 9.6688 6.01732 9.66557 5.7326L9.77198 5.78593C10.2735 5.96713 10.8223 5.96713 11.3238 5.78593V5.7326ZM5.87028 9.65211C6.40231 9.61465 6.90439 9.39134 7.28908 9.02108C7.67203 9.39392 8.1751 9.61767 8.70788 9.65211C8.86688 9.65388 9.02432 9.6205 9.16899 9.55434C8.26285 10.51 7.52522 11.6129 6.98758 12.8161C6.98758 12.3362 6.65949 11.7496 5.78161 11.2963C5.996 10.7693 5.996 10.1791 5.78161 9.65211H5.87028ZM3.75095 14.7092C4.22659 14.4752 4.606 14.0824 4.82392 13.5983C5.32472 13.7833 5.87493 13.7833 6.37573 13.5983C6.50314 13.5381 6.61761 13.4536 6.71269 13.3494C6.24145 14.5793 5.98353 15.8808 5.95009 17.1978C5.78161 16.7534 5.24069 16.309 4.2564 16.2646C4.24457 15.6984 4.01224 15.1593 3.60907 14.7626L3.75095 14.7092ZM3.75095 20.2197C4.09963 19.8166 4.29719 19.3043 4.3096 18.771C4.84246 18.7623 5.35485 18.5638 5.755 18.211C5.86303 18.1055 5.94763 17.9783 6.00329 17.8377C6.03124 19.1442 6.2801 20.4364 6.7393 21.6595C6.47069 21.4504 6.14963 21.3198 5.81161 21.2822C5.47359 21.2445 5.13176 21.3013 4.82392 21.4462C4.58657 20.9177 4.14962 20.5053 3.60907 20.2996L3.75095 20.2197ZM5.78161 23.7748C6.27145 23.5646 6.67066 23.1865 6.90778 22.7082C6.9663 22.5705 6.99646 22.4224 6.99645 22.2727C7.52899 23.4718 8.26059 24.5718 9.16012 25.5256C8.83447 25.4306 8.48846 25.4312 8.16312 25.5273C7.83778 25.6234 7.54676 25.811 7.32455 26.0678C7.12266 25.8675 6.88309 25.7093 6.61975 25.6025C6.35641 25.4958 6.07454 25.4424 5.79047 25.4457C5.79047 25.4457 5.79047 25.3746 5.84368 25.339C6.00739 24.8302 5.98857 24.28 5.79047 23.7836L5.78161 23.7748ZM16.6266 2.80853C16.6975 1.91976 17.0965 1.49314 17.469 1.49314C17.555 1.49534 17.6396 1.51544 17.7175 1.55216C17.7953 1.58888 17.8647 1.64142 17.9212 1.70645C18.1734 2.02157 18.3111 2.41342 18.3114 2.81742C18.5554 2.79339 18.8013 2.83607 19.023 2.94092C19.2447 3.04577 19.4339 3.20888 19.5706 3.4129C19.4671 3.63784 19.3023 3.82892 19.0952 3.96415C18.8881 4.09937 18.6472 4.17324 18.4 4.17725C18.338 5.35043 17.9301 5.8837 17.5665 5.8837C17.2029 5.8837 16.795 5.35932 16.733 4.18613C16.4854 4.17889 16.245 4.1016 16.0395 3.9632C15.8339 3.82481 15.6716 3.63094 15.5713 3.40401C15.6871 3.22763 15.8433 3.08155 16.0269 2.97797C16.2104 2.87438 16.416 2.81629 16.6266 2.80853ZM21.814 4.85272C21.5892 4.75395 21.3963 4.59437 21.2569 4.39186C21.1175 4.18935 21.0371 3.95192 21.0248 3.7062C21.2132 3.57546 21.4315 3.49467 21.6595 3.47136C21.8874 3.44805 22.1175 3.48297 22.3284 3.57288C22.7363 2.75521 23.2594 2.5419 23.6053 2.6841C23.6823 2.72079 23.7512 2.7728 23.8076 2.83697C23.864 2.90114 23.9068 2.97613 23.9334 3.05739C24.0439 3.44144 24.022 3.85162 23.8713 4.22169C24.092 4.29723 24.2895 4.42852 24.4449 4.60288C24.6002 4.77724 24.7081 4.98879 24.758 5.21711C24.5768 5.38297 24.353 5.49493 24.1118 5.54046C23.8706 5.58598 23.6215 5.56327 23.3925 5.47486C22.8781 6.5325 22.3106 6.86135 21.9736 6.71915C21.6367 6.57694 21.4593 5.93702 21.8495 4.82605L21.814 4.85272ZM23.7294 5.74149C24.2554 5.95543 24.8439 5.95543 25.3699 5.74149V5.83926C25.408 6.37233 25.6307 6.87531 25.9995 7.2613C25.6281 7.64557 25.405 8.14953 25.3699 8.68334C25.3689 8.83978 25.4022 8.99452 25.4674 9.13662C24.5183 8.236 23.424 7.50278 22.2308 6.968C22.7008 6.968 23.286 6.63916 23.7383 5.75927L23.7294 5.74149ZM27.2764 6.47918C27.9681 5.8837 28.5356 5.87481 28.7928 6.14144C28.8559 6.2067 28.9037 6.28521 28.9329 6.37129C28.962 6.45737 28.9717 6.54887 28.9612 6.63916C28.9175 7.03459 28.7426 7.40388 28.4647 7.68791C28.6323 7.84363 28.7578 8.03953 28.8291 8.2572C28.9005 8.47486 28.9154 8.70715 28.8726 8.9322C28.6535 9.01871 28.4152 9.04456 28.1828 9.00703C27.9503 8.9695 27.7322 8.86998 27.5513 8.71889C26.6646 9.50102 26.0261 9.60767 25.7778 9.32326C25.5295 9.03885 25.6093 8.43449 26.3808 7.54571C26.2116 7.36818 26.0953 7.14672 26.0452 6.9064C25.995 6.66609 26.013 6.4165 26.097 6.18588C26.3191 6.1315 26.5517 6.13831 26.7703 6.20559C26.9888 6.27286 27.1851 6.3981 27.3385 6.56805L27.2764 6.47918ZM32.322 11.3852C32.3562 11.4637 32.3738 11.5484 32.3738 11.6341C32.3738 11.7197 32.3562 11.8044 32.322 11.8829C32.1243 12.2375 31.8113 12.5136 31.4353 12.6651C31.5293 12.8736 31.5696 13.1025 31.5526 13.3308C31.5356 13.559 31.4617 13.7793 31.3377 13.9716C31.0908 13.9619 30.8515 13.8825 30.6476 13.7426C30.4437 13.6026 30.2833 13.4078 30.1849 13.1805C29.0765 13.5716 28.4114 13.3939 28.305 13.0561C28.1986 12.7184 28.4913 12.1673 29.5376 11.6607C29.4484 11.4313 29.4252 11.1814 29.4706 10.9395C29.5161 10.6975 29.6284 10.4732 29.7948 10.292C30.0222 10.3429 30.2329 10.4513 30.4067 10.6069C30.5806 10.7625 30.7118 10.96 30.7879 11.1808C31.6747 10.8786 32.1979 11.0919 32.3309 11.4297L32.322 11.3852ZM33.5369 17.5267C33.5347 17.6129 33.5146 17.6977 33.478 17.7757C33.4413 17.8538 33.3889 17.9233 33.324 17.9799C33.0096 18.2328 32.6187 18.3707 32.2156 18.371C32.2255 18.6079 32.1734 18.8432 32.0645 19.0537C31.9556 19.2642 31.7937 19.4424 31.5949 19.5708C31.3711 19.4663 31.181 19.3009 31.0462 19.0935C30.9114 18.8862 30.8373 18.6451 30.8323 18.3977C29.6618 18.3354 29.1297 17.9266 29.1297 17.5622C29.1297 17.1978 29.6529 16.789 30.8234 16.7268C30.8299 16.4796 30.9056 16.2393 31.0421 16.0334C31.1785 15.8275 31.3701 15.6643 31.5949 15.5625C31.7849 15.6917 31.939 15.8671 32.0429 16.0723C32.1468 16.2774 32.1971 16.5057 32.189 16.7357C33.0758 16.789 33.5014 17.1889 33.5014 17.5622L33.5369 17.5267ZM31.3023 14.8603C30.9555 15.2611 30.7581 15.7699 30.7436 16.3002C30.2107 16.3088 29.6984 16.5073 29.2982 16.8601C29.1942 16.9671 29.1127 17.0941 29.0588 17.2334C29.0302 15.9327 28.7813 14.6465 28.3228 13.4294C28.5918 13.638 28.9134 13.7676 29.2516 13.8037C29.5898 13.8398 29.9313 13.781 30.2382 13.6338C30.458 14.1493 30.8677 14.56 31.3821 14.7803L31.3023 14.8603ZM29.2627 11.3052C28.7799 11.5195 28.3876 11.897 28.1543 12.3718C28.0958 12.5095 28.0656 12.6576 28.0656 12.8073C27.5286 11.6064 26.7909 10.5062 25.8842 9.55434C26.2145 9.65114 26.5654 9.65243 26.8964 9.55809C27.2275 9.46374 27.5252 9.27759 27.7553 9.02108C27.9571 9.22139 28.1967 9.37953 28.4601 9.48633C28.7234 9.59313 29.0053 9.64645 29.2893 9.64322L29.2361 9.74987C29.0561 10.2526 29.0561 10.8025 29.2361 11.3052H29.2627ZM23.7028 29.3474C23.4903 28.8626 23.1133 28.469 22.6387 28.2364C22.5068 28.1801 22.3653 28.1499 22.2219 28.1475C23.4089 27.6112 24.4971 26.878 25.4408 25.9789C25.3545 26.3058 25.3593 26.6502 25.4546 26.9746C25.55 27.299 25.7323 27.591 25.9818 27.8187C25.7819 28.021 25.6241 28.2612 25.5176 28.5251C25.411 28.789 25.3578 29.0716 25.361 29.3563L25.2546 29.3029C24.7557 29.1246 24.2106 29.1246 23.7117 29.3029L23.7028 29.3474ZM29.1563 25.4368C28.6247 25.4757 28.1231 25.6988 27.7375 26.0678C27.3546 25.695 26.8515 25.4712 26.3187 25.4368C26.1694 25.4368 26.0216 25.467 25.8842 25.5256C26.7835 24.56 27.5122 23.448 28.039 22.2372C28.039 22.7082 28.3848 23.277 29.245 23.7303C29.0315 24.2575 29.0315 24.8474 29.245 25.3746L29.1563 25.4368ZM31.2757 20.3796C30.8092 20.6064 30.4339 20.9857 30.2116 21.4551C29.7108 21.27 29.1605 21.27 28.6597 21.4551C28.5208 21.5091 28.3941 21.5907 28.2873 21.695C28.7472 20.4753 28.9961 19.1858 29.0233 17.8822C29.1977 18.1692 29.4464 18.4035 29.7431 18.56C30.0398 18.7165 30.3734 18.7894 30.7081 18.771C30.7123 19.0594 30.7741 19.344 30.8899 19.6081C31.0056 19.8722 31.173 20.1103 31.3821 20.3085L31.2757 20.3796ZM34.8226 17.5711C34.8163 17.6632 34.788 17.7524 34.7402 17.8312C34.6924 17.9101 34.6264 17.9763 34.5478 18.0244C34.1449 18.264 33.6861 18.3928 33.2176 18.3977C33.4369 18.2028 33.5702 17.9289 33.5885 17.6357C33.6068 17.3426 33.5085 17.0541 33.3152 16.8334L33.2176 16.7357C34.3261 16.8245 34.8315 17.2156 34.8315 17.58L34.8226 17.5711ZM33.0491 16.629C32.785 16.4536 32.4788 16.3523 32.1624 16.3357C32.1471 16.0345 32.0965 15.7362 32.0117 15.4469C32.283 15.4989 32.5289 15.6413 32.7092 15.8511C32.8895 16.0609 32.9937 16.3257 33.0048 16.6023L33.0491 16.629ZM31.8077 13.8738C31.7807 13.5712 31.7182 13.2729 31.6215 12.985C31.8912 12.8441 32.1202 12.6359 32.2865 12.3806C32.3801 12.641 32.3838 12.9253 32.297 13.188C32.2102 13.4507 32.0379 13.6765 31.8077 13.8294V13.8738ZM33.5812 10.8786C33.6094 10.9668 33.6161 11.0604 33.6006 11.1516C33.5852 11.2429 33.5481 11.3291 33.4925 11.403C33.2102 11.7944 32.8271 12.1016 32.3841 12.2918C32.5129 12.0277 32.532 11.7232 32.4373 11.445C32.3425 11.1668 32.1417 10.9376 31.8786 10.8075L31.7456 10.7542C32.8275 10.4076 33.4305 10.5764 33.5723 10.9053L33.5812 10.8786ZM31.5683 10.6831C31.2775 10.6078 30.9723 10.6078 30.6815 10.6831C30.5522 10.4291 30.3945 10.1905 30.2116 9.97207C30.4872 9.91554 30.7739 9.95525 31.0239 10.0846C31.2739 10.2139 31.4723 10.4251 31.586 10.6831H31.5683ZM29.3248 8.65668C29.1863 8.40182 29.0197 8.16333 28.8282 7.94566C29.0234 7.71052 29.1547 7.42888 29.2095 7.12798C29.3977 7.33255 29.5114 7.5948 29.5324 7.87224C29.5533 8.14969 29.4801 8.42609 29.3248 8.65668ZM29.777 5.226C29.8373 5.29575 29.88 5.37894 29.9016 5.46863C29.9232 5.55831 29.9231 5.65188 29.9012 5.74149C29.7881 6.20003 29.5555 6.62024 29.2273 6.95912C29.2443 6.66725 29.1459 6.3804 28.9533 6.16079C28.7608 5.94117 28.4896 5.80648 28.1986 5.78593H28.0567C28.9435 5.04825 29.5288 4.96826 29.8302 5.226H29.777ZM27.8794 5.79482C27.5783 5.85233 27.2972 5.98706 27.0636 6.18588C26.8467 5.99364 26.6087 5.82666 26.3542 5.68817C26.5834 5.5347 26.8574 5.46268 27.1323 5.48362C27.4071 5.50457 27.6671 5.61727 27.8705 5.80371L27.8794 5.79482ZM25.0418 4.80828C24.815 4.62637 24.568 4.4713 24.3058 4.34611C24.3955 4.05842 24.4108 3.75257 24.3501 3.45734C24.6035 3.57266 24.8101 3.77109 24.9359 4.01992C25.0616 4.26874 25.099 4.55308 25.0418 4.82605V4.80828ZM24.1551 1.45759C24.2352 1.49994 24.3043 1.56064 24.3567 1.63476C24.4091 1.70888 24.4433 1.79435 24.4565 1.8842C24.5283 2.3487 24.4763 2.82395 24.3058 3.26181C24.2534 3.11159 24.1703 2.97395 24.0619 2.85766C23.9535 2.74137 23.8222 2.64897 23.6762 2.58634C23.5361 2.52619 23.3853 2.49518 23.2328 2.49518C23.0804 2.49518 22.9296 2.52619 22.7895 2.58634C23.286 1.59091 23.8358 1.27984 24.1728 1.42204L24.1551 1.45759ZM22.6121 2.6841C22.3574 2.85079 22.1498 3.08034 22.0091 3.35069C21.7364 3.25457 21.4538 3.18899 21.1667 3.15515C21.3194 2.92482 21.5452 2.75296 21.8076 2.66745C22.07 2.58194 22.3535 2.58781 22.6121 2.6841ZM20.2622 3.57288C20.2565 3.61118 20.2565 3.65012 20.2622 3.68842C20.4957 4.16515 20.8877 4.54542 21.3707 4.76384C21.1861 5.26579 21.1861 5.81725 21.3707 6.3192C21.4299 6.46003 21.5174 6.58711 21.6278 6.69248C20.4024 6.22891 19.1067 5.9794 17.7971 5.9548C18.2404 5.78593 18.6838 5.24378 18.737 4.25724C19.0239 4.2507 19.3066 4.1868 19.5685 4.06928C19.8304 3.95176 20.0663 3.78299 20.2622 3.57288ZM19.5706 2.87963C19.2819 2.79462 18.9843 2.74391 18.6838 2.72854C18.6672 2.4114 18.5662 2.10451 18.3912 1.83977C18.6783 1.84686 18.9537 1.95491 19.1693 2.14501C19.3849 2.33511 19.5269 2.59516 19.5706 2.87963ZM17.4956 0.133316C17.5874 0.139697 17.6764 0.168041 17.7551 0.215977C17.8338 0.263914 17.8999 0.330046 17.9478 0.408837C18.1869 0.812607 18.3154 1.2725 18.3202 1.742C18.1258 1.52225 17.8525 1.38859 17.56 1.37027C17.2676 1.35195 16.9798 1.45045 16.7596 1.64424L16.662 1.742C16.7507 0.631031 17.1409 0.133316 17.4956 0.133316ZM16.5556 1.91087C16.3806 2.17561 16.2796 2.48251 16.263 2.79964C15.9625 2.81493 15.6649 2.86565 15.3762 2.95074C15.4121 2.6598 15.5508 2.39137 15.7672 2.19409C15.9835 1.99681 16.2632 1.88372 16.5556 1.87532V1.91087ZM14.7821 3.68842L14.8531 3.75952C15.2548 4.10965 15.7662 4.30776 16.2985 4.31945C16.3079 4.85338 16.5058 5.36668 16.8571 5.76816C16.9674 5.88088 17.1004 5.96875 17.2473 6.0259C15.9218 6.03282 14.6076 6.27039 13.3633 6.72803C13.576 6.45925 13.7095 6.13621 13.7486 5.79541C13.7878 5.4546 13.7311 5.10961 13.585 4.79939C14.1055 4.57594 14.5188 4.15843 14.7378 3.63509L14.7821 3.68842ZM13.8954 3.24403C13.5932 3.27432 13.2956 3.33994 13.0086 3.43956C12.8812 3.13671 12.6724 2.8752 12.4056 2.6841C12.6654 2.59029 12.949 2.5866 13.2111 2.67362C13.4732 2.76065 13.6985 2.93335 13.851 3.16404L13.8954 3.24403ZM10.9159 1.46648C11.0038 1.4382 11.0972 1.43152 11.1883 1.44699C11.2793 1.46245 11.3653 1.49962 11.4391 1.55536C11.8296 1.83835 12.1361 2.22234 12.3258 2.66633C12.0634 2.53659 11.7605 2.51611 11.4831 2.60935C11.2056 2.70259 10.9763 2.90198 10.8449 3.16404L10.7031 3.26181C10.3661 2.19528 10.5346 1.59091 10.8627 1.4487L10.9159 1.46648ZM10.7031 3.43068C10.628 3.72215 10.628 4.02797 10.7031 4.31945C10.4404 4.44385 10.1933 4.59898 9.96706 4.78161C9.91912 4.50619 9.96581 4.22261 10.0995 3.97722C10.2332 3.73183 10.446 3.53915 10.7031 3.43068ZM8.63694 5.68817C8.38254 5.82679 8.14457 5.99376 7.92754 6.18588C7.7065 5.99374 7.44147 5.85939 7.15607 5.79482C7.35952 5.60838 7.61946 5.49568 7.89434 5.47473C8.16922 5.45379 8.44317 5.52581 8.67241 5.67928L8.63694 5.68817ZM5.21409 5.23489C5.28447 5.17603 5.36785 5.13484 5.4573 5.11475C5.54674 5.09465 5.63968 5.09623 5.7284 5.11935C6.18589 5.23268 6.60514 5.46579 6.94325 5.79482C6.78718 5.78578 6.63096 5.80994 6.48486 5.8657C6.33877 5.92146 6.20609 6.00757 6.09555 6.11837C5.985 6.22916 5.8991 6.36214 5.84346 6.50857C5.78783 6.655 5.76372 6.81158 5.77274 6.968C5.03674 6.07923 4.95693 5.49264 5.21409 5.19045V5.23489ZM5.79047 7.12798C5.84268 7.42802 5.97092 7.70958 6.16291 7.94566C5.97116 8.16314 5.80457 8.40166 5.66633 8.65668C5.51215 8.42512 5.44052 8.14815 5.46305 7.87068C5.48558 7.59321 5.60096 7.3315 5.79047 7.12798ZM4.80618 9.97207C4.62469 10.1994 4.46997 10.4469 4.34507 10.7098C4.05803 10.6198 3.75288 10.6045 3.45832 10.6653C3.57393 10.4159 3.76929 10.2122 4.01345 10.0866C4.2576 9.96106 4.53658 9.92074 4.80618 9.97207ZM1.46314 10.8608C1.50516 10.7777 1.56662 10.706 1.64228 10.6518C1.71794 10.5977 1.80556 10.5627 1.89764 10.5498C2.36186 10.4807 2.83605 10.5358 3.27211 10.7098C2.9968 10.8066 2.7707 11.0084 2.64288 11.2713C2.51505 11.5342 2.4958 11.837 2.58931 12.114L2.64251 12.2473C1.63162 11.7496 1.32126 11.1897 1.45427 10.8608H1.46314ZM2.72232 12.4073C2.88863 12.6626 3.11765 12.8707 3.38738 13.0117C3.2904 13.2847 3.22494 13.568 3.1923 13.856C2.96249 13.703 2.79102 13.4766 2.70571 13.2137C2.62039 12.9507 2.62625 12.6665 2.72232 12.4073ZM2.88194 15.4292C2.79688 15.7184 2.74628 16.0167 2.73119 16.3179C2.41477 16.3345 2.10857 16.4358 1.84444 16.6112C1.85903 16.3366 1.96464 16.0747 2.14454 15.867C2.32444 15.6593 2.56834 15.5177 2.8376 15.4647L2.88194 15.4292ZM0.14188 17.5267C0.1492 17.4338 0.178829 17.344 0.22824 17.2651C0.27765 17.1862 0.345376 17.1204 0.425639 17.0734C0.828488 16.8337 1.28733 16.705 1.75576 16.7001C1.53651 16.895 1.40316 17.1689 1.38488 17.462C1.3666 17.7552 1.46488 18.0436 1.65822 18.2643L1.75576 18.3621C0.629592 18.291 0.133012 17.9 0.133012 17.5356L0.14188 17.5267ZM1.91538 18.4688C2.17951 18.6442 2.48571 18.7454 2.80213 18.7621C2.81722 19.0632 2.86782 19.3616 2.95288 19.6508C2.68293 19.5993 2.43817 19.4581 2.25801 19.2501C2.07785 19.0421 1.97278 18.7794 1.95972 18.5043L1.91538 18.4688ZM3.2189 21.1795C3.24559 21.4821 3.3081 21.7805 3.40512 22.0683C3.1332 22.2055 2.90111 22.4106 2.73119 22.6638C2.63759 22.4034 2.63391 22.1192 2.72073 21.8565C2.80756 21.5938 2.97987 21.3679 3.21003 21.2151L3.2189 21.1795ZM1.4454 24.1747C1.41792 24.0865 1.41163 23.993 1.42704 23.9019C1.44245 23.8107 1.47912 23.7246 1.53408 23.6503C1.81642 23.2589 2.19954 22.9517 2.64251 22.7616C2.51308 23.0246 2.49264 23.3282 2.58567 23.6062C2.67869 23.8843 2.87763 24.1142 3.13909 24.2458L3.26324 24.2991C2.20801 24.6458 1.58728 24.4769 1.48974 24.148L1.4454 24.1747ZM3.42285 24.3791C3.71367 24.4544 4.01879 24.4544 4.3096 24.3791C4.44055 24.6426 4.60121 24.8901 4.78845 25.1168C4.51278 25.1733 4.22612 25.1336 3.97609 25.0043C3.72606 24.8749 3.52771 24.6637 3.41399 24.4058L3.42285 24.3791ZM5.6752 26.4055C5.81344 26.6606 5.98003 26.8991 6.17177 27.1166C5.97979 27.3526 5.85154 27.6342 5.79934 27.9342C5.60918 27.7332 5.49253 27.4735 5.46838 27.1976C5.44423 26.9216 5.514 26.6456 5.66633 26.4144L5.6752 26.4055ZM5.21409 29.8362C5.15383 29.7665 5.11111 29.6833 5.08952 29.5936C5.06792 29.5039 5.06806 29.4103 5.08994 29.3207C5.20301 28.8622 5.43559 28.442 5.76387 28.1031C5.74681 28.395 5.84524 28.6818 6.03779 28.9014C6.23035 29.121 6.50152 29.2557 6.7925 29.2763H6.93438C6.09197 30.014 5.46238 30.094 5.20522 29.8362H5.21409ZM7.15607 29.2674C7.45715 29.2099 7.73822 29.0752 7.97188 28.8763C8.18896 29.0684 8.42692 29.2354 8.68128 29.374C8.45218 29.5309 8.17697 29.6057 7.90018 29.5864C7.62339 29.567 7.36121 29.4546 7.15607 29.2674ZM9.94933 30.2362C10.1765 30.4176 10.4234 30.5726 10.6853 30.6983C10.5956 30.986 10.5803 31.2919 10.641 31.5871C10.3927 31.471 10.1905 31.2748 10.0667 31.0299C9.94293 30.7849 9.90472 30.5054 9.95819 30.2362H9.94933ZM10.8361 33.578C10.7542 33.5367 10.6834 33.4765 10.6294 33.4023C10.5755 33.3281 10.5399 33.2421 10.5257 33.1513C10.4671 32.6932 10.5282 32.2277 10.7031 31.8004C10.7979 32.078 10.9985 32.3067 11.261 32.4365C11.5235 32.5664 11.8266 32.5869 12.1041 32.4937L12.2371 32.4403C11.7406 33.4358 11.1819 33.7468 10.8538 33.6135L10.8361 33.578ZM12.379 32.3248C12.6337 32.1581 12.8414 31.9285 12.982 31.6582C13.2547 31.7546 13.5372 31.8202 13.8244 31.8537C13.6724 32.0825 13.4485 32.2539 13.1884 32.3409C12.9282 32.4278 12.6465 32.4253 12.3879 32.3337L12.379 32.3248ZM14.7378 31.436C14.7435 31.3977 14.7435 31.3588 14.7378 31.3205C14.4949 30.8327 14.086 30.4482 13.585 30.2362C13.7696 29.7342 13.7696 29.1827 13.585 28.6808C13.5311 28.5415 13.4496 28.4145 13.3456 28.3075C14.5522 28.777 15.8294 29.0384 17.1231 29.0808C16.8367 29.2555 16.603 29.5049 16.4469 29.8022C16.2907 30.0996 16.218 30.4339 16.2364 30.7694C15.6653 30.7766 15.1202 31.0099 14.72 31.4182L14.7378 31.436ZM15.4117 32.1737C15.7003 32.2589 15.998 32.3096 16.2985 32.3248C16.315 32.6419 16.4161 32.9488 16.5911 33.2136C16.3135 33.2044 16.0473 33.1009 15.8362 32.92C15.625 32.7391 15.4816 32.4916 15.4294 32.2181L15.4117 32.1737ZM17.5044 34.92C17.4126 34.9136 17.3236 34.8853 17.2449 34.8373C17.1662 34.7894 17.1001 34.7233 17.0522 34.6445C16.8131 34.2407 16.6846 33.7808 16.6798 33.3113C16.8742 33.5311 17.1475 33.6647 17.44 33.6831C17.7324 33.7014 18.0202 33.6029 18.2404 33.4091L18.338 33.3113C18.2404 34.4223 17.8503 34.92 17.4512 34.92H17.5044ZM18.4444 33.1425C18.6194 32.8777 18.7204 32.5708 18.737 32.2537C19.0375 32.2385 19.3351 32.1878 19.6238 32.1026C19.5716 32.376 19.4282 32.6235 19.2171 32.8044C19.0059 32.9853 18.7397 33.0889 18.4621 33.098L18.4444 33.1425ZM20.2179 31.3649L20.1469 31.2938C19.7452 30.9437 19.2338 30.7456 18.7015 30.7339C18.6903 30.2269 18.5092 29.7385 18.1872 29.3474C18.0804 29.2431 17.9538 29.1615 17.8148 29.1074C19.1063 29.0754 20.3833 28.826 21.5923 28.3697C21.3901 28.6406 21.2651 28.9615 21.2307 29.2981C21.1964 29.6347 21.2539 29.9743 21.3973 30.2806C20.8851 30.5057 20.4788 30.9193 20.2622 31.436L20.2179 31.3649ZM21.1046 31.8093C21.4068 31.7788 21.7044 31.7132 21.9914 31.6138C22.132 31.8841 22.3397 32.1137 22.5944 32.2803C22.3356 32.375 22.0526 32.3801 21.7906 32.2947C21.5286 32.2093 21.3027 32.0384 21.149 31.8093H21.1046ZM24.093 33.5868C24.005 33.6151 23.9116 33.6218 23.8206 33.6063C23.7295 33.5909 23.6435 33.5537 23.5698 33.498C23.1793 33.215 22.8728 32.831 22.683 32.387C22.9465 32.5161 23.2503 32.5353 23.5279 32.4403C23.8055 32.3454 24.0342 32.144 24.1639 31.8804L24.2171 31.7471C24.563 32.8314 24.3945 33.4358 24.0664 33.578L24.093 33.5868ZM24.2969 31.6049C24.372 31.3134 24.372 31.0076 24.2969 30.7161C24.559 30.5906 24.8059 30.4355 25.0329 30.2539C25.085 30.5276 25.0432 30.8108 24.9144 31.0576C24.7856 31.3045 24.5774 31.5005 24.3235 31.6138L24.2969 31.6049ZM26.3542 29.3474C26.6086 29.2088 26.8466 29.0419 27.0636 28.8497C27.2972 29.0485 27.5783 29.1832 27.8794 29.2407C27.6759 29.4272 27.416 29.5399 27.1411 29.5608C26.8662 29.5818 26.5923 29.5097 26.3631 29.3563L26.3542 29.3474ZM29.777 29.8007C29.7078 29.8617 29.6249 29.9049 29.5352 29.9266C29.4456 29.9483 29.3521 29.9478 29.2627 29.9251C28.8052 29.8118 28.386 29.5787 28.0479 29.2496C28.204 29.2587 28.3602 29.2345 28.5063 29.1787C28.6524 29.123 28.785 29.0369 28.8956 28.9261C29.0061 28.8153 29.092 28.6823 29.1477 28.5359C29.2033 28.3894 29.2274 28.2329 29.2184 28.0764C29.9455 28.9652 30.0253 29.5518 29.7682 29.854L29.777 29.8007ZM29.2095 27.8898C29.1521 27.588 29.0177 27.3063 28.8194 27.0721C29.0107 26.8544 29.1773 26.6159 29.3159 26.3611C29.4691 26.5909 29.5409 26.8654 29.52 27.1409C29.4991 27.4165 29.3867 27.677 29.2007 27.8809L29.2095 27.8898ZM30.2116 25.099C30.3922 24.8711 30.5469 24.6237 30.6727 24.3614C30.9597 24.4513 31.2648 24.4666 31.5594 24.4058C31.4447 24.658 31.2481 24.8638 31.0017 24.9897C30.7554 25.1156 30.4737 25.1541 30.2027 25.099H30.2116ZM33.5457 24.2103C33.5046 24.2923 33.4445 24.3633 33.3704 24.4174C33.2964 24.4715 33.2106 24.5071 33.1201 24.5213C32.6588 24.5889 32.1878 24.5337 31.7545 24.3614C32.0314 24.2663 32.2596 24.0652 32.3892 23.8021C32.5188 23.539 32.5392 23.2353 32.4462 22.9571L32.393 22.8238C33.3861 23.3215 33.6965 23.8814 33.5546 24.2103H33.5457ZM32.2954 22.6638C32.1291 22.4085 31.9001 22.2004 31.6303 22.0594C31.7297 21.7718 31.7952 21.4735 31.8254 21.1706C32.0556 21.3235 32.2279 21.5493 32.3147 21.812C32.4016 22.0747 32.3979 22.359 32.3043 22.6194L32.2954 22.6638Z" fill="black"></path>
</svg></svg></g></svg>